<svg xmlns="http://www.w3.org/2000/svg" width="20.33" height="37.531" viewBox="0 0 20.33 37.531"><defs><style>.a{fill:#eef7ec;}.b{fill:#58a75d;}</style></defs><g transform="translate(-941 -938)"><g transform="translate(941 938)"><path class="a" d="M293.473,144v6.255A6.254,6.254,0,0,1,288,156.464V144Z" transform="translate(-274.708 -136.181)"/><path class="a" d="M185.2,80v6.255H168V80Z" transform="translate(-166.436 -78.436)"/><circle class="b" cx="8" cy="8" r="8" transform="translate(2.165 20.766)"/><path class="a" d="M230.255,144v12.464a6.459,6.459,0,0,1-.782.047h-4.691a6.459,6.459,0,0,1-.782-.047V144Z" transform="translate(-216.963 -136.181)"/><path class="a" d="M173.473,144v12.464A6.254,6.254,0,0,1,168,150.255V144Z" transform="translate(-166.436 -136.181)"/><path d="M170.766,64h-17.2A1.564,1.564,0,0,0,152,65.564v12.51a7.836,7.836,0,0,0,4.132,6.9,9.383,9.383,0,1,0,12.066,0,7.835,7.835,0,0,0,4.132-6.9V65.564A1.564,1.564,0,0,0,170.766,64ZM169.2,67.128v3.128H155.128V67.128Zm-5.473,15.638H160.6V73.383h3.128Zm-8.6-9.383h2.346v8.746a4.693,4.693,0,0,1-2.346-4.054ZM162.165,98.4a6.255,6.255,0,1,1,6.255-6.255A6.263,6.263,0,0,1,162.165,98.4Zm4.691-16.275V73.383H169.2v4.691A4.694,4.694,0,0,1,166.856,82.129Z" transform="translate(-152 -64)"/></g></g></svg>