<svg width="479" height="365" viewBox="0 0 479 365" fill="none" xmlns="http://www.w3.org/2000/svg">
<path d="M442.032 269.621C443.424 262.611 444.045 255.464 443.883 248.313C443.751 241.224 442.236 234.04 438.605 228.021C434.559 234.55 432.72 242.263 433.369 249.97C433.838 257.396 436.785 264.431 441.715 269.894" fill="#58A75D"/>
<path d="M433.125 288.582C433.215 280.958 433.125 273.25 431.396 265.847C429.667 258.444 426.018 251.27 420.146 246.625C417.991 254.454 418.208 262.771 420.768 270.471C423.335 278.115 426.769 283.821 433.142 288.581" fill="#58A75D"/>
<path d="M421.854 311.117C422.876 304.301 423.674 297.4 422.958 290.553C422.241 283.706 419.891 276.855 415.114 271.971C412.275 278.717 411.502 286.188 412.895 293.395C414.307 300.535 416.709 306.073 421.854 311.118" fill="#58A75D"/>
<path d="M413.662 327.223C413.304 319.484 412.771 311.682 410.543 304.289C408.315 296.897 404.213 289.849 397.953 285.519C396.229 293.585 396.942 301.998 399.999 309.638C403.067 317.219 406.891 322.787 413.621 327.213" fill="#58A75D"/>
<path d="M401.471 346.225C401.707 339.126 401.811 331.952 400.316 325.021C398.822 318.09 395.601 311.336 390.2 306.89C388.044 314.135 388.084 321.88 390.314 329.101C392.552 336.273 395.641 341.685 401.471 346.223" fill="#58A75D"/>
<path d="M391.337 362.5C391.582 355.401 391.676 348.228 390.193 341.296C388.709 334.364 386.234 328.272 380.844 323.825C378.676 331.008 377.95 338.212 380.19 345.374C382.43 352.537 385.508 357.959 391.336 362.497" fill="#58A75D"/>
<path d="M433.154 288.371C437.829 285.146 442.858 282.497 448.137 280.477C452.266 278.8 456.569 277.611 460.961 276.934C465.377 276.258 469.89 276.876 473.98 278.716C468.83 284.225 462.224 288.073 454.972 289.789C447.72 291.505 440.138 291.013 433.154 288.374" fill="#58A75D"/>
<path d="M401.451 346.351C405.254 343.725 409.346 341.568 413.641 339.923C417 338.557 420.5 337.589 424.074 337.039C427.665 336.491 431.334 336.992 434.659 338.487C430.47 342.967 425.097 346.097 419.199 347.494C413.301 348.891 407.134 348.494 401.452 346.351" fill="#58A75D"/>
<path d="M393.504 359.26C397.595 357.624 403.087 354.247 407.443 353.681C411.012 353.115 414.632 352.967 418.234 353.24C421.856 353.529 425.326 354.86 428.246 357.079C423.181 360.473 417.268 362.293 411.218 362.322C405.205 362.322 398.538 362.612 393.505 359.249" fill="#58A75D"/>
<path d="M423.52 309.711C428.196 306.483 433.228 303.833 438.512 301.817C442.637 300.136 446.937 298.943 451.327 298.263C455.745 297.596 460.256 298.217 464.346 300.056C459.193 305.559 452.587 309.404 445.336 311.119C438.086 312.834 430.505 312.346 423.521 309.714" fill="#58A75D"/>
<path d="M410.554 332.697C414.796 328.89 419.46 325.61 424.451 322.924C428.336 320.725 432.454 318.991 436.724 317.755C441.022 316.513 445.575 316.542 449.857 317.838C445.425 323.969 439.345 328.64 432.362 331.28C425.379 333.919 417.797 334.412 410.545 332.697" fill="#58A75D"/>
<path d="M441.069 271.991C448.697 271.377 456.07 268.897 462.569 264.756C469.067 260.616 474.502 254.937 478.417 248.197C472.803 248.921 467.168 250.295 462.28 253.157C454.098 258.013 448.627 266.192 441.069 272.032" fill="#58A75D"/>
<path d="M449.63 254.167C455.223 251.419 459.632 246.654 462.015 240.783C464.397 234.911 464.586 228.346 462.546 222.34C457.609 225.861 453.765 230.766 451.474 236.468C449.184 242.17 448.544 248.427 449.63 254.492" fill="#58A75D"/>
<path d="M390.385 363.811C390.444 363.699 390.509 363.59 390.58 363.486C390.723 363.245 390.928 362.94 391.173 362.553C391.739 361.714 392.523 360.517 393.525 358.997C394.528 357.477 395.807 355.579 397.197 353.356C398.587 351.133 400.264 348.637 401.942 345.795C403.62 342.953 405.565 339.891 407.506 336.525C409.447 333.159 411.525 329.551 413.641 325.733C417.876 318.079 422.427 309.597 426.936 300.567C436.059 282.509 443.709 265.857 449.2 253.787L455.767 239.483C456.534 237.826 457.125 236.515 457.547 235.603C457.74 235.184 457.894 234.849 458.017 234.554C458.055 234.433 458.114 234.319 458.19 234.219C458.164 234.342 458.123 234.462 458.068 234.575C457.966 234.837 457.824 235.173 457.64 235.624L455.962 239.557C454.49 242.954 452.339 247.883 449.632 253.934C444.231 266.056 436.623 282.739 427.499 300.808C422.947 309.837 418.385 318.32 414.113 325.975C411.955 329.781 409.909 333.41 407.904 336.745C405.899 340.079 404.029 343.183 402.279 345.995C400.529 348.806 398.894 351.311 397.463 353.514C396.032 355.716 394.773 357.593 393.709 359.113L391.285 362.604L390.642 363.507C390.477 363.717 390.397 363.821 390.385 363.811Z" fill="#263238"/>
<path d="M37.7125 293.824C35.0338 287.699 33.0277 281.287 31.731 274.708C30.2628 268.189 30.5167 261.387 32.4667 255.003C37.4857 260.125 40.7205 266.799 41.6714 273.994C42.7156 280.867 41.4302 287.9 38.0295 293.918" fill="#58A75D"/>
<path d="M49.6996 309.302C48.0733 302.337 46.6317 295.271 46.6928 288.109C46.7539 280.947 48.7385 273.626 53.1459 268.121C56.7045 274.851 58.1779 282.533 57.3698 290.143C56.562 297.682 54.5683 303.639 49.6996 309.355" fill="#58A75D"/>
<path d="M64.5571 327.569C62.2963 321.54 60.1287 315.394 59.4427 308.977C58.7566 302.56 59.535 295.774 62.8787 290.3C66.8288 295.878 69.0294 302.557 69.1881 309.449C69.3415 316.285 68.2473 321.864 64.5566 327.569" fill="#58A75D"/>
<path d="M75.3282 340.552C74.1009 333.4 73.017 326.133 73.5694 318.887C74.1219 311.64 76.4564 304.332 81.3103 299.036C84.4967 306.08 85.5172 313.951 84.2363 321.604C82.9575 329.185 80.5744 335.1 75.2971 340.574" fill="#58A75D"/>
<path d="M90.2999 355.37C88.643 348.921 87.1095 342.369 87.0783 335.707C87.0472 329.045 88.643 322.18 92.6824 316.969C96.1232 323.144 97.6496 330.246 97.0586 337.332C96.4563 344.359 94.7067 349.917 90.2993 355.37" fill="#58A75D"/>
<path d="M49.6278 309.114C44.6884 307.145 39.5393 305.783 34.2876 305.055C30.1688 304.39 25.9894 304.211 21.8308 304.52C17.6526 304.842 13.6476 306.365 10.2748 308.914C16.0992 312.867 22.9221 314.992 29.907 315.027C36.8919 315.063 43.735 313.008 49.5973 309.113" fill="#58A75D"/>
<path d="M90.3406 355.474C86.3294 353.877 82.1481 352.771 77.8838 352.181C74.5329 351.637 71.1322 351.489 67.7485 351.741C64.3491 351.996 61.0905 353.236 58.3519 355.317C63.091 358.532 68.6419 360.259 74.3242 360.287C80.0066 360.315 85.5735 358.642 90.3423 355.474" fill="#58A75D"/>
<path d="M62.7485 326.605C57.8087 324.64 52.6596 323.282 47.4083 322.557C43.293 321.893 39.1169 321.714 34.9618 322.023C30.7845 322.341 26.7792 323.86 23.4056 326.406C29.2298 330.359 36.0524 332.484 43.037 332.519C50.0215 332.555 56.8643 330.5 62.7264 326.606" fill="#58A75D"/>
<path d="M79.2448 344.903C74.5967 342.319 69.6675 340.305 64.5593 338.905C60.5583 337.735 56.4414 337.031 52.2866 336.808C48.1022 336.588 43.942 337.58 40.2816 339.671C45.5777 344.339 52.0868 347.321 59.0112 348.252C65.9356 349.184 72.9746 348.024 79.2656 344.914" fill="#58A75D"/>
<path d="M39.0832 295.795C31.9742 296.847 24.723 296.135 17.9378 293.72C11.1526 291.304 5.03156 287.254 0.0883217 281.911C5.36579 281.204 10.7276 281.586 15.8593 283.033C24.3265 285.739 30.984 292.072 39.0837 295.795" fill="#58A75D"/>
<path d="M27.6809 281.272C22.0054 279.945 17.0062 276.519 13.6402 271.649C10.2742 266.779 8.77781 260.808 9.43733 254.877C14.6569 257.055 19.1547 260.728 22.3934 265.457C25.6322 270.186 27.4751 275.77 27.7019 281.544" fill="#58A75D"/>
<path d="M93.9104 359.511C93.8208 359.451 93.7381 359.381 93.6641 359.302L92.9893 358.663L90.442 356.208C89.3376 355.16 87.9877 353.776 86.4638 352.182C84.94 350.587 83.17 348.815 81.3506 346.771C73.7422 338.685 63.596 327.161 52.9501 313.948C42.3042 300.735 33.0492 288.444 26.4337 279.5C23.1194 275.022 20.4708 271.383 18.6503 268.867L16.605 265.951L16.074 265.186C16.0068 265.104 15.9513 265.012 15.9093 264.913L16.1149 265.146L16.6865 265.879L18.8546 268.732C20.7464 271.248 23.447 274.845 26.7794 279.218C33.468 288.111 42.7536 300.359 53.3696 313.551C63.9855 326.742 74.0993 338.32 81.6256 346.468C83.4874 348.565 85.2367 350.327 86.7396 351.932C88.2424 353.537 89.5624 354.9 90.6453 356.011L93.1308 358.591L93.7649 359.262L93.9104 359.511Z" fill="#263238"/>
<path d="M395.04 363.811L407.996 223.135C408.235 220.636 407.991 218.114 407.278 215.712C406.566 213.311 405.399 211.076 403.845 209.137C402.29 207.197 400.378 205.591 398.218 204.409C396.058 203.227 393.692 202.493 391.255 202.249C390.773 202.201 390.288 202.172 389.803 202.162L245.514 199.226C240.762 199.127 236.153 200.893 232.627 204.161C229.102 207.43 226.926 211.955 226.544 216.813L215.489 363.749L395.04 363.811Z" fill="#455A64"/>
<path d="M374.564 363.78C374.606 363.619 374.634 363.454 374.646 363.287C374.646 362.931 374.739 362.449 374.811 361.818C374.944 360.508 375.15 358.62 375.394 356.199C375.874 351.29 376.57 344.234 377.439 335.52C379.106 318.017 381.406 293.898 383.943 267.251C385.875 246.489 387.675 227.268 389.128 211.622C389.128 210.839 389.108 210.063 389.067 209.293C389.08 208.524 389.001 207.757 388.832 207.007C388.446 205.549 387.61 204.258 386.449 203.327C385.345 202.448 384.001 201.942 382.604 201.88L378.812 201.805L366.161 201.607L358.072 201.502H355.229C355.229 201.502 355.474 201.502 355.955 201.555L358.072 201.638L366.161 201.87L378.802 202.185L382.586 202.29C383.929 202.355 385.217 202.857 386.262 203.725C387.306 204.593 388.053 205.78 388.394 207.114C388.556 207.832 388.628 208.569 388.609 209.306C388.609 210.06 388.609 210.826 388.661 211.602C387.177 227.248 385.347 246.47 383.373 267.233C380.898 293.878 378.659 318.008 377.042 335.51C376.256 344.235 375.621 351.24 375.182 356.21C374.977 358.632 374.824 360.53 374.71 361.84C374.66 362.468 374.629 362.951 374.597 363.308C374.576 363.464 374.565 363.622 374.564 363.78Z" fill="#263238"/>
<path d="M210.987 117.369C210.232 116.579 209.302 115.989 208.276 115.649H208.471C208.285 115.61 208.098 115.582 207.909 115.565C207.566 115.471 207.208 115.45 206.856 115.502C206.504 115.554 206.167 115.679 205.863 115.869C204.725 116.316 203.791 117.184 203.245 118.302C202.826 119.293 202.68 120.383 202.822 121.453C202.964 122.524 203.39 123.534 204.053 124.373C204.537 125.139 205.236 125.736 206.058 126.086C206.879 126.437 207.785 126.524 208.656 126.337C209.526 126.149 210.322 125.696 210.936 125.037C211.551 124.377 211.957 123.542 212.1 122.642C212.36 121.738 212.394 120.781 212.199 119.86C212.005 118.939 211.588 118.082 210.987 117.369Z" fill="#455A64"/>
<path d="M202.784 91.8656C199.361 90.904 196.213 89.1105 193.609 86.637C191.004 84.1635 189.019 81.0829 187.822 77.656C186.674 74.1976 186.343 70.5091 186.857 66.8939C187.37 63.2787 188.714 59.8404 190.778 56.862C186.545 57.9735 182.33 53.936 181.461 49.5213C180.592 45.1065 182.127 40.5344 183.762 36.3286C187.506 26.7335 192.189 17.1076 199.993 10.6584C207.796 4.20922 219.424 1.75573 227.851 7.30234C227.922 3.53766 232.228 1.65009 235.807 1.01103C251.414 -1.63168 268.123 2.56253 280.417 12.8815C292.711 23.2004 300.226 39.6115 299.489 56.0123C304.787 64.5266 301.391 77.4668 292.668 82.04C294.217 91.9152 292.412 102.036 287.554 110.71C282.666 119.301 275.015 125.882 265.914 129.323" fill="#BBD54B"/>
<path d="M207.417 82.6268C208.368 68.6059 217.543 51.4721 231.154 53.0445L273.616 64.3699C275.618 64.5929 277.465 65.5791 278.791 67.1329C280.117 68.6867 280.825 70.6948 280.775 72.7589L275.477 177.938L275.773 178.001C275.773 178.001 265.946 207.572 237.935 198.387C232.361 196.563 229.846 190.302 228.73 183.863H228.447V181.661C227.921 176.865 227.886 172.025 228.344 167.221V155.33C228.344 155.414 210.897 152.183 207.43 128.841C205.658 117.243 206.354 98.241 207.417 82.6268Z" fill="#B78876"/>
<path d="M214.996 97.4963C214.981 98.2785 215.267 99.0353 215.791 99.604C216.315 100.173 217.035 100.508 217.798 100.538C218.534 100.614 219.27 100.387 219.843 99.9069C220.416 99.4268 220.78 98.7331 220.854 97.9781C220.857 97.9363 220.861 97.8945 220.863 97.8539C220.875 97.0743 220.59 96.3206 220.069 95.7527C219.548 95.1849 218.832 94.8474 218.072 94.8119C217.33 94.7381 216.589 94.9697 216.013 95.4558C215.437 95.9419 215.072 96.6427 215 97.404C215 97.4354 214.998 97.4662 214.996 97.4963Z" fill="#263238"/>
<path d="M211.345 92.5575C211.703 92.9556 213.932 91.288 217.082 91.3205C220.233 91.3531 222.513 92.9771 222.86 92.5888C223.023 92.4106 222.666 91.7077 221.665 90.9537C220.313 89.9731 218.697 89.4489 217.041 89.4539C215.403 89.4368 213.802 89.9546 212.469 90.9322C211.529 91.6764 211.202 92.3903 211.345 92.5575Z" fill="#263238"/>
<path d="M245.328 98.0315C245.314 98.8134 245.6 99.5698 246.124 100.138C246.648 100.707 247.368 101.042 248.13 101.072C248.867 101.148 249.602 100.921 250.175 100.441C250.749 99.9606 251.112 99.2666 251.187 98.5115C251.191 98.4709 251.195 98.4291 251.198 98.3873C251.206 97.6085 250.92 96.8567 250.399 96.2898C249.878 95.7229 249.163 95.3849 248.405 95.347C247.665 95.2705 246.927 95.4982 246.351 95.9801C245.775 96.4619 245.41 97.1585 245.335 97.9166C245.334 97.9549 245.33 97.9932 245.328 98.0315Z" fill="#263238"/>
<path d="M242.283 93.3753C242.651 93.7746 244.88 92.107 248.02 92.1384C251.16 92.1697 253.461 93.7949 253.797 93.4078C253.971 93.2296 253.603 92.5267 252.601 91.7715C251.25 90.7902 249.634 90.2659 247.978 90.2717C246.343 90.255 244.746 90.7728 243.417 91.7501C242.444 92.4942 242.108 93.2081 242.283 93.3753Z" fill="#263238"/>
<path d="M230.714 117.211C230.714 117.033 228.782 116.677 225.601 116.236C224.803 116.141 224.036 115.974 223.914 115.407C223.846 114.557 224.039 113.707 224.466 112.975C225.233 110.983 226.031 108.906 226.88 106.683C230.234 97.7802 232.668 90.4499 232.32 90.3147C231.973 90.1794 228.966 97.2886 225.611 106.192C224.804 108.395 224.026 110.481 223.29 112.483C222.781 113.475 222.625 114.617 222.85 115.714C222.967 116.005 223.146 116.266 223.374 116.477C223.603 116.688 223.874 116.844 224.169 116.933C224.612 117.057 225.069 117.124 225.528 117.131C228.73 117.368 230.704 117.399 230.714 117.211Z" fill="#263238"/>
<path d="M228.29 155.361C239.017 155.604 249.6 152.787 258.857 147.223C258.857 147.223 251.351 163.226 228.554 160.855L228.29 155.361Z" fill="#AA6550"/>
<path d="M231.993 124.993C232.602 124.227 233.39 123.632 234.285 123.265C235.179 122.898 236.15 122.771 237.106 122.895C237.8 122.96 238.474 123.171 239.086 123.513C239.699 123.856 240.236 124.324 240.665 124.887C241.08 125.427 241.324 126.084 241.365 126.77C241.405 127.456 241.24 128.138 240.891 128.725C240.385 129.292 239.727 129.694 239 129.88C238.272 130.067 237.508 130.03 236.801 129.775C235.321 129.22 233.962 128.372 232.801 127.279C232.45 127.02 232.149 126.697 231.912 126.325C231.791 126.149 231.726 125.938 231.726 125.722C231.726 125.506 231.791 125.296 231.912 125.119" fill="#AA6550"/>
<path d="M239.98 119.508C239.47 119.508 239.438 122.978 236.492 125.443C233.547 127.908 229.926 127.541 229.896 127.981C229.845 128.201 230.704 128.673 232.237 128.725C234.236 128.768 236.184 128.084 237.739 126.797C239.238 125.565 240.208 123.781 240.439 121.826C240.563 120.357 240.184 119.486 239.98 119.508Z" fill="#263238"/>
<path d="M240.911 87.7544C241.217 88.6355 244.357 88.2362 248.07 88.7191C251.782 89.202 254.736 90.2595 255.227 89.4736C255.454 89.0969 254.944 88.2675 253.745 87.3771C252.152 86.3123 250.337 85.6473 248.447 85.4361C246.56 85.1882 244.642 85.4071 242.854 86.0746C241.463 86.622 240.778 87.3034 240.911 87.7544Z" fill="#263238"/>
<path d="M212.592 83.2351C213.145 83.9688 215.313 83.2351 217.92 83.2351C220.527 83.2351 222.727 83.7575 223.241 82.9936C223.467 82.6268 223.128 81.8908 222.217 81.1902C220.942 80.3238 219.431 79.8945 217.902 79.9638C216.369 79.9744 214.878 80.4767 213.637 81.4004C212.663 82.1236 212.367 82.8793 212.592 83.2351Z" fill="#263238"/>
<path d="M266.427 94.8118C266.319 93.4284 266.114 92.0548 265.813 90.7018C265.42 89.1335 264.8 87.6347 263.972 86.2557C262.014 82.9368 258.994 80.4165 255.427 79.124C251.86 77.8315 247.966 77.8466 244.409 79.1669C242.941 79.7043 241.561 80.4676 240.317 81.4305C238.995 82.4127 237.838 83.6096 236.892 84.9741C234.84 87.8202 233.732 91.2663 233.732 94.8057C233.732 98.3452 234.84 101.791 236.892 104.637C237.838 106.002 238.995 107.199 240.317 108.181C241.561 109.144 242.941 109.907 244.409 110.445C247.137 111.465 250.081 111.722 252.938 111.189C255.434 110.709 257.785 109.631 259.799 108.043C261.473 106.755 262.89 105.15 263.973 103.314C264.802 101.936 265.423 100.437 265.813 98.8679C266.113 97.5178 266.319 96.1474 266.427 94.7671C266.439 94.8575 266.439 94.949 266.427 95.0393V95.8473C266.428 96.2829 266.394 96.7178 266.324 97.1475C266.26 97.7446 266.158 98.3367 266.018 98.9201C265.649 100.521 265.046 102.055 264.229 103.471C262.268 106.909 259.193 109.532 255.539 110.885C251.886 112.238 247.886 112.234 244.235 110.874C242.716 110.329 241.288 109.548 240.001 108.556C239.332 108.047 238.697 107.494 238.099 106.9C237.504 106.281 236.954 105.618 236.453 104.917C234.328 101.979 233.181 98.4187 233.181 94.761C233.181 91.1033 234.328 87.5426 236.453 84.6049C236.954 83.9045 237.504 83.2422 238.099 82.6233C238.697 82.0288 239.332 81.4754 240.001 80.9668C241.288 79.9757 242.716 79.194 244.235 78.6491C247.893 77.2959 251.896 77.2951 255.554 78.6467C259.212 79.9983 262.295 82.6176 264.27 86.0519C265.087 87.4675 265.69 89.002 266.059 90.6031C266.199 91.1864 266.301 91.7786 266.365 92.3757C266.434 92.8055 266.469 93.2404 266.468 93.6759V94.4827C266.47 94.5939 266.456 94.7047 266.427 94.8118Z" fill="#263238"/>
<path d="M292.567 83.2665C292.521 83.1632 292.49 83.0538 292.474 82.9414C292.412 82.7011 292.342 82.3854 292.26 81.9878C292.178 81.5902 292.065 81.033 291.901 80.4258C291.738 79.8187 291.544 79.1042 291.339 78.3282C290.014 73.8844 288.097 69.6496 285.643 65.7438C282.001 59.9512 277.327 54.9136 271.867 50.8946C265.134 46.0361 257.495 42.6553 249.429 40.964C241.355 39.2475 233.053 38.9638 224.884 40.1252C218.213 40.946 211.703 42.8026 205.576 45.6312C203.238 46.7397 200.992 48.0402 198.858 49.5201C197.253 50.6498 195.726 51.891 194.287 53.2349L192.731 54.7336L191.709 55.9194L191.054 56.6327C190.981 56.7218 190.899 56.8024 190.809 56.873C190.866 56.7743 190.935 56.6827 191.013 56.6002L191.627 55.8457L192.65 54.6268L194.173 53.0741C195.597 51.6976 197.115 50.4257 198.713 49.2676C200.85 47.7526 203.104 46.4199 205.453 45.283C211.604 42.3721 218.159 40.4616 224.884 39.6203C233.094 38.4261 241.444 38.6995 249.564 40.4282C257.698 42.1398 265.397 45.5647 272.173 50.486C277.671 54.553 282.363 59.6566 285.999 65.5238C288.446 69.469 290.323 73.7568 291.572 78.2539L292.093 80.3515C292.247 80.9709 292.32 81.5049 292.401 81.935C292.483 82.3651 292.524 82.6582 292.565 82.8996C292.584 83.0211 292.585 83.1449 292.567 83.2665Z" fill="#263238"/>
<path d="M298.099 60.7201C298.068 60.644 298.051 60.5625 298.049 60.4798C298.058 60.2347 298.027 59.9898 297.956 59.7555C297.894 59.1269 297.75 58.204 297.516 57.0187C296.822 53.693 295.642 50.4937 294.018 47.5286C291.598 43.133 288.461 39.1958 284.742 35.8886C280.165 31.8598 275.155 28.377 269.811 25.507C260.165 20.149 250.13 15.5629 239.796 11.7896C235.827 10.3432 232.575 9.27347 230.326 8.56012L227.708 7.74286L227.044 7.52172C226.89 7.52172 226.808 7.43813 226.818 7.4271C226.896 7.42107 226.975 7.42107 227.053 7.4271L227.738 7.59543C228.342 7.75215 229.231 7.98258 230.366 8.31866C232.637 8.96874 235.9 9.97521 239.897 11.381C250.296 15.0654 260.38 19.625 270.046 25.0131C275.424 27.9042 280.457 31.4232 285.047 35.4997C288.786 38.8599 291.924 42.8627 294.322 47.3284C295.935 50.3379 297.075 53.5896 297.698 56.9636C297.865 57.8792 297.981 58.8038 298.046 59.7328V60.456C298.079 60.5403 298.097 60.6297 298.099 60.7201Z" fill="#263238"/>
<path d="M228.054 59.7038C228.054 59.7038 249.439 59.3788 265.629 84.1273C276.295 100.444 278.545 120.924 278.545 120.924L286.798 81.9466L280.662 64.1151L265.884 55.5479L237.841 53.9331L227.256 59.3021" fill="#BBD54B"/>
<path d="M269.955 61.7278C235.899 53.3388 208.666 64.8737 203.675 92.2742L194.531 76.9746L214.464 52.3729L233.894 47.1931L272.953 53.2877L269.955 61.7278Z" fill="#BBD54B"/>
<path d="M291.973 59.3573C291.932 59.2493 291.904 59.1363 291.891 59.0212C291.859 58.6887 291.805 58.359 291.728 58.0345C291.658 57.4972 291.555 56.9651 291.42 56.4412C291.268 55.7316 291.077 55.0313 290.848 54.3435C290.249 52.4074 289.461 50.5383 288.495 48.7644C287.212 46.4223 285.664 44.2436 283.884 42.2734C281.728 39.8785 279.292 37.7654 276.632 35.9821C273.571 33.9558 270.272 32.3349 266.813 31.1581C259.511 28.61 250.964 27.7075 242.077 27.8967C233.189 28.0859 224.692 28.9449 217.215 30.9695C213.691 31.9056 210.266 33.1946 206.988 34.8177C204.133 36.2431 201.437 37.9837 198.95 40.0086C195.309 42.9132 192.256 46.5178 189.96 50.6206C189.564 51.3543 189.214 52.0043 188.937 52.5941C188.661 53.1838 188.436 53.6423 188.284 54.0724C188.131 54.5025 188.008 54.7643 187.905 55.0058C187.802 55.2472 187.772 55.3204 187.761 55.3093C188.256 53.6428 188.925 52.0359 189.756 50.5167C192.002 46.3405 195.041 42.6681 198.694 39.716C201.188 37.6649 203.898 35.9062 206.774 34.473C210.074 32.8126 213.527 31.4919 217.081 30.5301C224.599 28.4336 233.138 27.6152 242.066 27.3842C250.995 27.1531 259.605 28.1178 266.968 30.7187C270.463 31.9165 273.794 33.5693 276.878 35.6367C279.557 37.4484 282.003 39.5972 284.16 42.0331C285.944 44.0365 287.489 46.2508 288.761 48.6291C289.711 50.4307 290.475 52.3284 291.043 54.2918C291.258 55.0014 291.435 55.7224 291.573 56.4516C291.7 56.9825 291.785 57.5228 291.829 58.0675C291.88 58.486 291.921 58.8111 291.953 59.1158C291.965 59.1958 291.971 59.2764 291.973 59.3573Z" fill="#263238"/>
<path d="M206.232 82.9489C205.751 82.913 205.276 82.8179 204.817 82.6657C203.563 82.2551 202.381 81.6393 201.319 80.842C199.763 79.621 198.439 78.1173 197.413 76.4057C196.167 74.3094 195.246 72.0277 194.682 69.6419C193.735 65.303 193.686 60.8088 194.538 56.4493C194.788 55.1296 195.161 53.8376 195.653 52.5912C195.817 52.15 195.992 51.825 196.094 51.6044C196.136 51.4838 196.202 51.3733 196.287 51.2794C195.702 52.9899 195.24 54.7423 194.907 56.5224C194.179 60.8318 194.279 65.2455 195.202 69.5154C195.757 71.843 196.639 74.0755 197.821 76.1428C198.799 77.8179 200.06 79.3018 201.543 80.5256C202.959 81.6028 204.545 82.4225 206.232 82.9489Z" fill="#FAFAFA"/>
<path d="M278.29 60.8147L278.064 60.7416L277.429 60.4584L276.406 59.9969L274.974 59.4408C271.928 58.2876 268.76 57.5061 265.535 57.1127C260.751 56.5254 255.915 56.5467 251.136 57.176C248.436 57.501 245.624 58.0246 242.719 58.6329C239.815 59.2412 236.838 59.9859 233.842 60.9407C221.753 64.526 212.437 72.3392 208.274 79.5436C206.592 82.3896 205.328 85.474 204.521 88.6976C204.225 89.8416 204.051 90.7291 203.929 91.3507C203.867 91.6235 203.827 91.854 203.786 92.0426C203.771 92.1225 203.747 92.2004 203.714 92.2748C203.699 92.195 203.699 92.1131 203.714 92.0333C203.735 91.7971 203.769 91.5624 203.817 91.3304C203.937 90.427 204.104 89.5309 204.318 88.6459C205.045 85.3708 206.267 82.2326 207.94 79.3451C212.113 72.0043 221.522 64.0344 233.722 60.4694C236.789 59.5146 239.735 58.7803 242.65 58.1627C245.565 57.5452 248.387 57.0402 251.108 56.7355C255.926 56.1068 260.802 56.1068 265.62 56.7355C268.862 57.1705 272.04 58.016 275.079 59.2528L276.5 59.8611L277.523 60.3748L278.136 60.6998C278.229 60.7619 278.3 60.8049 278.29 60.8147Z" fill="#263238"/>
<path d="M233.721 60.867C233.969 60.8395 234.219 60.8395 234.467 60.867C235.174 60.9219 235.878 61.0165 236.574 61.1502C239.145 61.6556 241.639 62.509 243.99 63.6879C249.962 66.5935 257.419 72.4524 263.36 80.8542C266.111 84.8291 268.523 89.0394 270.569 93.4386C272.309 96.9804 273.85 100.622 275.182 104.345C276.092 106.848 276.82 109.417 277.36 112.031C277.534 112.964 277.657 113.688 277.709 114.179C277.755 114.427 277.779 114.68 277.78 114.933C277.693 114.697 277.635 114.45 277.606 114.199C277.525 113.707 277.371 112.993 277.157 112.103C276.538 109.518 275.763 106.975 274.836 104.489C273.455 100.806 271.885 97.2009 270.131 93.6887C268.08 89.3462 265.686 85.183 262.972 81.2408C257.993 74.0812 251.451 68.2134 243.869 64.1052C241.555 62.9098 239.106 62.0119 236.577 61.4318C235.677 61.2431 234.982 61.1067 234.532 61.0434C234.256 61.0129 233.985 60.9538 233.721 60.867Z" fill="#263238"/>
<path d="M227.82 94.8118C227.72 93.4276 227.515 92.0535 227.207 90.7018C226.815 89.1335 226.194 87.6346 225.367 86.2557C224.284 84.4202 222.867 82.8147 221.194 81.5263C219.18 79.939 216.829 78.8612 214.333 78.3803C211.475 77.8473 208.531 78.1043 205.803 79.125C204.335 79.6626 202.956 80.4259 201.712 81.3887C200.389 82.3708 199.232 83.5677 198.285 84.9323C196.24 87.781 195.137 91.2258 195.137 94.7633C195.137 98.3009 196.24 101.746 198.285 104.594C199.232 105.959 200.389 107.157 201.712 108.139C202.956 109.102 204.335 109.865 205.803 110.403C209.359 111.738 213.258 111.761 216.828 110.467C220.399 109.173 223.419 106.644 225.367 103.314C226.196 101.936 226.816 100.437 227.207 98.8679C227.514 97.5191 227.719 96.1481 227.82 94.7671C227.836 94.8571 227.836 94.9494 227.82 95.0393V95.8473C227.82 96.2971 227.782 96.7461 227.707 97.1893C227.643 97.7864 227.54 98.3786 227.4 98.9619C227.045 100.549 226.459 102.073 225.661 103.481C223.701 106.92 220.626 109.544 216.972 110.897C213.319 112.25 209.319 112.246 205.668 110.885C204.149 110.339 202.721 109.557 201.434 108.567C200.765 108.059 200.13 107.505 199.533 106.91C198.937 106.292 198.386 105.629 197.886 104.928C195.761 101.99 194.614 98.4296 194.614 94.7721C194.614 91.1145 195.761 87.554 197.886 84.6159C198.387 83.915 198.937 83.2527 199.533 82.6343C200.13 82.0393 200.765 81.4859 201.434 80.9778C202.721 79.987 204.149 79.2053 205.668 78.6601C209.322 77.303 213.325 77.3038 216.978 78.6624C220.632 80.0209 223.704 82.651 225.661 86.0943C226.479 87.5098 227.082 89.0443 227.452 90.6455C227.591 91.229 227.693 91.8211 227.759 92.4181C227.827 92.8479 227.861 93.2828 227.861 93.7183V94.5251C227.864 94.6224 227.85 94.7194 227.82 94.8118Z" fill="#263238"/>
<path d="M279.241 116.068C278.502 115.28 277.585 114.689 276.572 114.348H276.776C276.588 114.302 276.396 114.27 276.203 114.253C275.86 114.159 275.501 114.138 275.149 114.192C274.797 114.247 274.46 114.374 274.158 114.568C273.025 115.019 272.095 115.886 271.551 117.001C271.129 117.992 270.982 119.082 271.124 120.153C271.267 121.224 271.694 122.234 272.359 123.073C272.841 123.84 273.539 124.439 274.361 124.79C275.182 125.142 276.088 125.23 276.959 125.043C277.83 124.855 278.625 124.401 279.239 123.74C279.853 123.079 280.257 122.243 280.397 121.342C280.654 120.434 280.683 119.474 280.481 118.552C280.279 117.63 279.852 116.775 279.241 116.068Z" fill="#455A64"/>
<path d="M214.494 72.2237C214.134 72.0933 213.79 71.9179 213.471 71.7014C213.088 71.4854 212.719 71.2434 212.367 70.977C211.886 70.6524 211.421 70.3025 210.976 69.9287C209.798 68.9783 208.703 67.9257 207.702 66.7828C206.479 65.3704 205.385 63.847 204.431 62.2316C203.503 60.5967 202.718 58.8804 202.087 57.1029C201.585 55.6494 201.202 54.1554 200.943 52.6364C200.81 51.998 200.768 51.3984 200.708 50.8841C200.646 50.4431 200.615 49.9981 200.615 49.5526C200.574 49.1728 200.574 48.7895 200.615 48.4097C200.718 48.4097 200.779 50.0245 201.29 52.6039C201.6 54.0901 202.014 55.5515 202.528 56.9769C203.171 58.7119 203.954 60.3887 204.869 61.9895C205.808 63.5756 206.871 65.0803 208.049 66.4885C209.02 67.6336 210.07 68.706 211.19 69.6977C213.185 71.3142 214.545 72.1268 214.494 72.2237Z" fill="#FAFAFA"/>
<path d="M215.977 42.7255C216.059 42.7255 215.404 44.2567 214.657 46.7735C213.677 50.0425 213.1 53.4244 212.938 56.8405C212.785 60.261 213.043 63.6879 213.706 67.0439C214.228 69.6135 214.73 71.165 214.657 71.2393C214.465 70.9117 214.317 70.5586 214.218 70.1899C213.867 69.2062 213.577 68.2011 213.348 67.1803C211.771 60.3989 212.101 53.2981 214.299 46.7009C214.613 45.6799 214.992 44.6813 215.435 43.7117C215.577 43.3621 215.759 43.031 215.977 42.7255Z" fill="#FAFAFA"/>
<path d="M239.139 58.0885C238.64 57.1178 238.193 56.1203 237.799 55.1004C235.682 50.2986 232.876 45.8484 229.475 41.8973C228.73 41.1114 228.027 40.2857 227.367 39.4235C227.62 39.5704 227.851 39.754 228.052 39.9685C228.649 40.4901 229.216 41.0469 229.75 41.6361C233.348 45.4888 236.197 50.0086 238.146 54.9541C238.514 55.8973 238.78 56.6739 238.943 57.2178C239.048 57.497 239.114 57.7902 239.139 58.0885Z" fill="#FAFAFA"/>
<path d="M245.891 41.394C246.215 42.0915 246.426 42.8388 246.514 43.6061C247.176 47.2626 247.058 51.0228 246.167 54.6279C246.024 55.3832 245.768 56.1116 245.41 56.7877C245.908 54.257 246.25 51.6967 246.433 49.1219C246.41 46.5369 246.229 43.9558 245.891 41.394Z" fill="#FAFAFA"/>
<path d="M257.365 45.3898C257.716 47.3404 257.631 49.3473 257.118 51.2597C256.604 53.1721 255.675 54.9404 254.4 56.4319C255.281 54.7269 256.02 52.948 256.607 51.1146C257.017 49.2317 257.271 47.3166 257.365 45.3898Z" fill="#FAFAFA"/>
<path d="M267.265 88.0608C267.163 88.0608 267.378 86.2464 267.388 83.3314C267.379 79.5236 266.936 75.7299 266.069 72.0275C265.183 68.3415 263.875 64.776 262.172 61.4056C260.852 58.825 259.861 57.3263 259.932 57.2741C260.229 57.5902 260.487 57.9422 260.7 58.3224C261.355 59.2685 261.955 60.2526 262.499 61.2698C266.167 68.0044 267.984 75.6335 267.756 83.3436C267.729 84.5011 267.64 85.6562 267.489 86.8036C267.455 87.2293 267.38 87.6504 267.265 88.0608Z" fill="#455A64"/>
<path d="M288.383 70.4621C288.468 70.9395 288.506 71.4245 288.496 71.9097V73.6295C288.511 74.3859 288.473 75.1424 288.383 75.8932C288.23 77.8577 287.946 79.8092 287.534 81.7341C286.507 86.4509 284.734 90.9637 282.287 95.0939C281.282 96.7737 280.172 98.385 278.964 99.9179C278.463 100.579 277.94 101.137 277.511 101.627C277.083 102.118 276.683 102.54 276.356 102.865C276.045 103.22 275.703 103.543 275.333 103.83C275.599 103.429 275.904 103.057 276.243 102.718C276.55 102.37 276.928 101.943 277.326 101.429C277.724 100.915 278.226 100.379 278.707 99.6764C279.869 98.1297 280.938 96.512 281.909 94.8322C283.072 92.7667 284.097 90.6222 284.976 88.4137C285.831 86.1906 286.535 83.9095 287.082 81.5867C287.518 79.6865 287.839 77.7607 288.045 75.8201C288.158 74.9918 288.178 74.2367 288.229 73.5756C288.28 72.9144 288.311 72.3491 288.311 71.8772C288.294 71.4043 288.318 70.9307 288.383 70.4621Z" fill="#FAFAFA"/>
<path d="M262.714 30.2677C262.858 30.9942 262.858 31.7428 262.714 32.4693C262.442 34.2381 261.828 35.9333 260.908 37.455C259.987 38.9767 258.779 40.2943 257.355 41.3302C256.793 41.808 256.143 42.165 255.444 42.3796C255.444 42.3053 256.118 41.8967 257.13 41.0684C259.774 38.8822 261.613 35.8385 262.346 32.4379C262.433 31.7086 262.556 30.9843 262.714 30.2677Z" fill="#FAFAFA"/>
<path d="M282.646 41.4045C282.791 42.1223 282.774 42.865 282.594 43.5747C282.288 45.3078 281.587 46.9424 280.549 48.3459C279.503 49.7538 278.142 50.8831 276.581 51.6386C275.955 52.0018 275.255 52.21 274.537 52.2469C274.537 52.1634 275.282 51.9219 276.397 51.2933C277.839 50.4702 279.102 49.3536 280.108 48.0119C281.114 46.6702 281.842 45.1318 282.247 43.4911C282.533 42.2299 282.553 41.4045 282.646 41.4045Z" fill="#FAFAFA"/>
<path d="M289.805 50.4441C289.532 51.0733 289.139 51.6402 288.649 52.1111C286.427 54.5767 283.369 56.0776 280.102 56.3065C279.438 56.402 278.762 56.3555 278.117 56.1701C280.33 56.0071 282.501 55.4646 284.539 54.5652C286.505 53.5002 288.284 52.1075 289.805 50.4441Z" fill="#FAFAFA"/>
<path d="M242.495 39.2128C241.465 37.7108 240.909 35.9213 240.901 34.0852C240.706 32.2711 241.063 30.4396 241.924 28.8422C241.563 30.5651 241.384 32.3229 241.391 34.0852C241.586 35.8289 241.956 37.5472 242.495 39.2128Z" fill="#FAFAFA"/>
<path d="M239.376 40.0422C238.838 39.667 238.364 39.2029 237.974 38.6689C235.981 36.1642 234.769 33.1016 234.498 29.8806C234.397 29.222 234.417 28.5497 234.559 27.899C234.846 30.0939 235.357 32.2519 236.083 34.3377C236.977 36.3552 238.081 38.2678 239.376 40.0422Z" fill="#455A64"/>
<path d="M221.388 30.2677C221.876 33.897 221.094 37.5862 219.18 40.6801C219.026 40.6069 220.06 38.4367 220.663 35.5525C221.266 32.6684 221.223 30.2677 221.388 30.2677Z" fill="#FAFAFA"/>
<path d="M205.996 45.0426C205.996 45.1059 205.506 44.948 204.851 44.4976C204.02 43.8828 203.324 43.0972 202.806 42.1909C202.264 41.2908 201.916 40.283 201.783 39.2342C201.702 38.4373 201.783 37.934 201.855 37.9433C202.145 39.3258 202.613 40.6626 203.247 41.9187C204.021 43.0825 204.946 44.1333 205.996 45.0426Z" fill="#455A64"/>
<path d="M214.034 4.56557C214.106 4.62884 213.012 5.82395 211.641 8.07834C209.894 11.0122 208.788 14.2997 208.399 17.7142C208.011 21.1288 208.349 24.5891 209.391 27.8566C210.188 30.3733 211.017 31.7884 210.925 31.8412C210.676 31.5459 210.467 31.218 210.302 30.8661C209.806 29.9408 209.382 28.9764 209.034 27.9819C207.874 24.6751 207.478 21.1369 207.879 17.6464C208.28 14.156 209.467 10.8089 211.346 7.86939C211.908 6.98478 212.537 6.14678 213.227 5.36309C213.706 4.81806 214.003 4.53249 214.034 4.56557Z" fill="#FAFAFA"/>
<path d="M193.427 16.3739C193.52 16.3739 193.201 17.7159 193.201 19.8757C193.187 22.6901 193.83 25.4672 195.075 27.9753C196.321 30.4835 198.133 32.6502 200.36 34.2948C202.069 35.5642 203.296 36.0674 203.255 36.1614C202.947 36.1101 202.65 36.0071 202.375 35.8567C201.597 35.5094 200.851 35.0918 200.146 34.6088C197.789 33.0048 195.87 30.8106 194.571 28.2339C193.294 25.6371 192.678 22.7512 192.782 19.8449C192.812 18.9761 192.922 18.1121 193.11 17.2643C193.166 16.9512 193.273 16.6501 193.427 16.3739Z" fill="#455A64"/>
<path d="M232.954 9.96652C233.112 10.1811 233.233 10.422 233.312 10.6787C233.598 11.3544 233.821 12.0569 233.976 12.7764C234.519 15.1205 234.581 17.5546 234.159 19.9247C233.737 22.2947 232.839 24.549 231.523 26.5448C231.13 27.1508 230.681 27.7165 230.182 28.2339C229.835 28.6007 229.629 28.7894 229.599 28.7563C229.569 28.7232 230.285 27.8647 231.205 26.3336C233.622 22.3044 234.479 17.4933 233.608 12.8484C233.281 11.0566 232.821 10.0083 232.954 9.96652Z" fill="#FAFAFA"/>
<path d="M243.2 13.4479C243.469 14.1812 243.594 14.9613 243.569 15.7441C243.685 19.572 242.413 23.3079 240 26.2308C239.535 26.856 238.964 27.3891 238.312 27.8038C238.745 27.1749 239.21 26.5693 239.703 25.9894C241.877 23.0339 243.097 19.4559 243.191 15.7552C243.221 14.3494 243.118 13.4555 243.2 13.4479Z" fill="#455A64"/>
<path d="M259.718 19.4374C260.032 19.7906 260.254 20.2201 260.362 20.6854C260.71 21.7797 260.836 22.9359 260.73 24.0821C260.61 25.2329 260.261 26.3465 259.707 27.3545C259.278 28.1195 258.898 28.4974 258.847 28.4028C259.487 27.0002 259.926 25.5098 260.149 23.9782C260.215 22.4513 260.07 20.9226 259.718 19.4374Z" fill="#FAFAFA"/>
<path d="M277.226 31.0019C277.318 31.118 276.51 31.9666 275.181 32.5331C274.438 32.9704 273.574 33.1404 272.727 33.016C273.441 32.6182 274.191 32.2917 274.967 32.0409C275.687 31.625 276.444 31.2772 277.226 31.0019Z" fill="#FAFAFA"/>
<path d="M287.575 39.3909C288.227 40.5068 288.494 41.8154 288.332 43.1057C288.351 44.4033 287.953 45.6711 287.197 46.7125C287.054 46.6394 287.707 45.0978 287.8 43.0744C287.893 41.051 287.423 39.4437 287.575 39.3909Z" fill="#455A64"/>
<path d="M271.427 6.66272C271.603 6.85157 271.754 7.06285 271.877 7.29133C272.227 7.90074 272.518 8.54359 272.746 9.21082C273.533 11.4263 273.746 13.8131 273.364 16.1381C272.983 18.4632 272.019 20.6469 270.568 22.476C270.137 23.0295 269.654 23.5386 269.126 23.9962C268.758 24.3212 268.534 24.4681 268.504 24.4373C268.474 24.4065 269.26 23.6607 270.273 22.2456C271.593 20.417 272.473 18.2945 272.841 16.051C273.209 13.8076 273.054 11.5069 272.39 9.33619C271.898 7.65816 271.345 6.70451 271.427 6.66272Z" fill="#455A64"/>
<path d="M284.528 17.674C284.522 18.4557 284.355 19.2273 284.037 19.9377C283.357 21.6939 282.283 23.2613 280.903 24.5127C279.522 25.7641 277.873 26.6645 276.09 27.1409C275.365 27.3806 274.598 27.4597 273.841 27.3731C273.841 27.2785 274.69 27.1949 275.989 26.7752C277.672 26.2146 279.224 25.3041 280.549 24.1007C281.873 22.8973 282.942 21.4268 283.687 19.781C284.262 18.5441 284.436 17.6525 284.528 17.674Z" fill="#FAFAFA"/>
<path d="M294.183 30.2677C294.225 30.786 294.133 31.3066 293.916 31.7768C293.492 32.9439 292.819 33.9993 291.947 34.8664C291.075 35.7335 290.026 36.3904 288.875 36.7895C288.411 36.9904 287.905 37.0702 287.403 37.0216C288.933 36.4375 290.346 35.5742 291.575 34.4735C292.692 33.2503 293.576 31.8239 294.183 30.2677Z" fill="#455A64"/>
<path d="M201.444 184.125L226.776 169.127L276.54 164.093L276.867 171.571L263.429 275.816L274.371 363.777H194.635L201.444 184.125Z" fill="#263238"/>
<path d="M224.915 179.784L223.349 164.778C223.285 164.157 223.34 163.528 223.513 162.928C223.685 162.328 223.972 161.769 224.355 161.283C224.738 160.796 225.211 160.392 225.747 160.093C226.283 159.794 226.871 159.607 227.477 159.541L227.543 159.535L273.953 155.236C274.24 155.21 274.53 155.242 274.805 155.33C275.081 155.419 275.337 155.562 275.558 155.752C275.78 155.942 275.963 156.174 276.096 156.437C276.23 156.699 276.312 156.986 276.337 157.281C276.341 157.323 276.344 157.365 276.345 157.406L276.867 175.233L263.428 198.618L249.612 203.105H232.731L223.015 192.473L224.915 179.784Z" fill="#263238"/>
<path d="M270.017 169.549C269.396 169.524 268.778 169.461 268.165 169.36C266.482 169.197 264.79 169.165 263.102 169.266C260.601 169.442 258.116 169.811 255.668 170.369C252.895 170.966 249.89 171.805 246.698 172.603C243.697 173.398 240.64 173.956 237.556 174.27C235.022 174.51 232.467 174.334 229.988 173.747C228.316 173.337 226.717 172.657 225.253 171.733C224.863 171.474 224.488 171.194 224.128 170.894C223.882 170.685 223.76 170.558 223.781 170.546C223.801 170.533 224.333 170.923 225.375 171.532C226.85 172.363 228.435 172.97 230.08 173.336C232.524 173.858 235.032 173.989 237.515 173.724C240.565 173.385 243.586 172.817 246.555 172.026C249.737 171.228 252.763 170.4 255.565 169.834C258.04 169.292 260.554 168.962 263.082 168.847C264.791 168.78 266.503 168.875 268.195 169.13C268.798 169.236 269.218 169.319 269.566 169.403C269.721 169.438 269.871 169.486 270.017 169.549Z" fill="#455A64"/>
<g opacity="0.3">
<path opacity="0.3" d="M226.02 171.888C224.775 175.39 224.742 179.731 227.258 182.374C229.304 184.565 232.617 185.11 235.523 184.471C238.399 183.712 241.128 182.456 243.592 180.757C249.983 176.855 256.468 172.818 263.729 171.172C264.205 171.109 264.654 170.913 265.028 170.606C265.2 170.456 265.306 170.243 265.324 170.013C265.343 169.783 265.271 169.555 265.126 169.379C265.111 169.361 265.095 169.343 265.079 169.327C264.898 169.211 264.689 169.149 264.475 169.148C258.053 168.487 251.876 171.088 245.587 172.536C239.298 173.983 232.067 175.504 226.309 172.022" fill="black"/>
</g>
<path d="M234.867 159.062C234.207 159.426 233.656 159.966 233.271 160.624C232.545 161.83 232.637 163.875 232.637 166.088C232.759 170.534 233.475 174.078 233.301 174.12C232.984 173.39 232.775 172.616 232.678 171.824C232.319 169.939 232.114 168.027 232.065 166.108C232.019 165.059 232.039 164.008 232.126 162.962C232.187 162.066 232.461 161.198 232.924 160.434C233.241 159.917 233.696 159.503 234.233 159.239C234.432 159.142 234.647 159.082 234.867 159.062Z" fill="#455A64"/>
<path d="M247.139 172.097C246.955 172.097 247.375 168.804 246.799 164.842C246.224 160.879 244.978 157.836 245.152 157.764C245.571 158.348 245.892 159 246.103 159.693C246.71 161.327 247.136 163.026 247.371 164.758C247.62 166.494 247.672 168.253 247.525 170.001C247.512 170.717 247.382 171.425 247.139 172.097Z" fill="#455A64"/>
<path d="M262.091 156.504C262.505 157.023 262.804 157.628 262.969 158.276C263.986 161.364 263.766 164.74 262.357 167.662C262.118 168.288 261.74 168.848 261.252 169.297C262.175 167.315 262.766 165.188 263.002 163.006C263.267 159.335 261.908 156.567 262.091 156.504Z" fill="#455A64"/>
<path d="M167.522 312.573C167.522 312.573 178.773 227.634 182.055 212.229C183.291 206.449 185.649 200.984 188.987 196.158C192.325 191.332 196.576 187.243 201.487 184.136L204.606 338.035L190.891 355.738L175.551 361.757C172.039 363.142 168.162 363.205 164.608 361.936L149.913 356.693L148.664 327.98L161.08 324.299L167.522 312.573Z" fill="#263238"/>
<path d="M320.404 182.678C326.033 184.924 331.038 188.554 334.978 193.247C338.919 197.941 341.675 203.555 343.005 209.596C351.779 249.247 366.792 302.001 367.027 319.023C367.323 340.699 358.079 355.538 346.011 358.274C339.109 359.836 292.157 359.05 266.662 358.494C262.11 358.392 257.746 356.614 254.366 353.486C250.987 350.357 248.817 346.087 248.253 341.454C247.63 336.4 248.965 331.297 251.971 327.24C254.976 323.183 259.413 320.497 264.329 319.757L315.985 311.966L306.393 257.006L315.884 180.885L320.404 182.678Z" fill="#263238"/>
<path d="M275.538 165.669L296.227 174.342L315.904 180.885L316.374 241.256L304.664 363.622L263.602 363.779L263.684 309.166C262.159 282.839 263.835 256.42 268.675 230.518L274.924 178.6" fill="#263238"/>
<path d="M305.809 251.448C305.884 251.644 305.936 251.848 305.964 252.056C306.057 252.528 306.168 253.105 306.301 253.818C306.588 255.433 306.986 257.635 307.456 260.309C308.408 265.877 309.685 273.427 311.108 281.763C312.53 290.1 313.685 297.671 314.595 303.239C315.004 305.934 315.341 308.137 315.617 309.763C315.72 310.486 315.801 311.074 315.864 311.545C315.892 311.754 315.892 311.966 315.864 312.175C315.789 311.979 315.737 311.775 315.709 311.566C315.608 311.094 315.496 310.518 315.352 309.805C315.069 308.19 314.667 305.998 314.176 303.314C313.213 297.829 311.915 290.248 310.525 281.857C309.135 273.467 307.897 265.887 307.048 260.381C306.639 257.686 306.312 255.484 306.024 253.858C305.933 253.135 305.861 252.547 305.798 252.076C305.773 251.867 305.777 251.656 305.809 251.448Z" fill="#263238"/>
<path d="M325.19 191.256C324.678 191.497 324.148 191.697 323.605 191.854C322.169 192.39 320.765 193.013 319.4 193.719C314.915 196.084 311.026 199.483 308.038 203.649C307.185 204.823 306.435 206.072 305.797 207.382C305.247 208.62 304.799 209.904 304.458 211.22C303.878 213.466 303.502 215.762 303.333 218.079C303.159 220.052 303.128 221.664 303.119 222.776C303.155 223.352 303.155 223.93 303.119 224.507C302.993 223.939 302.932 223.358 302.935 222.776C302.849 221.2 302.849 219.622 302.935 218.046C303.049 215.696 303.392 213.362 303.957 211.081C304.292 209.725 304.744 208.403 305.307 207.128C305.95 205.782 306.713 204.499 307.587 203.298C310.621 199.054 314.62 195.634 319.236 193.336C320.629 192.652 322.072 192.08 323.552 191.626C324.084 191.443 324.633 191.319 325.19 191.256Z" fill="#263238"/>
<path d="M263.143 319.978C263.383 319.986 263.623 319.968 263.86 319.925L265.903 319.662L273.452 318.614L298.323 314.829L316.404 311.976H316.333C318.637 312.316 320.806 313.3 322.601 314.82C324.006 315.971 325.174 317.397 326.037 319.014C326.765 320.442 327.282 321.972 327.571 323.556C327.587 323.448 327.587 323.338 327.571 323.231C327.579 322.911 327.538 322.592 327.448 322.286C327.233 321.098 326.847 319.949 326.303 318.877C325.457 317.194 324.288 315.703 322.867 314.495C321.027 312.894 318.789 311.849 316.403 311.476H316.333L298.271 314.266L273.43 318.22L265.912 319.477L263.867 319.855C263.622 319.869 263.379 319.91 263.143 319.978Z" fill="#263238"/>
<path d="M267.296 358.515C267.467 358.486 267.632 358.429 267.786 358.347C268.254 358.174 268.708 357.964 269.144 357.718C270.764 356.834 272.209 355.65 273.408 354.226C275.186 352.103 276.507 349.619 277.285 346.937C278.251 343.657 278.505 340.2 278.031 336.808C277.493 333.404 276.082 330.208 273.942 327.548C272.226 325.384 270.1 323.6 267.692 322.304C266.089 321.425 264.365 320.799 262.579 320.447C261.956 320.311 261.443 320.311 261.107 320.259C260.938 320.236 260.767 320.236 260.598 320.259C263.025 320.674 265.371 321.492 267.542 322.681C269.866 324.007 271.912 325.788 273.565 327.924C275.611 330.523 276.962 333.624 277.483 336.921C277.938 340.216 277.704 343.572 276.797 346.768C276.063 349.392 274.81 351.833 273.117 353.94C271.966 355.363 270.582 356.57 269.026 357.505C267.939 358.169 267.274 358.452 267.296 358.515Z" fill="#263238"/>
<g opacity="0.2">
<path opacity="0.2" d="M306.578 255.37L298.867 314.419L308.633 312.175L311.66 286.41L306.578 255.37Z" fill="black"/>
</g>
<g opacity="0.3">
<path opacity="0.3" d="M148.889 327.989C153.528 327.128 158.28 327.128 162.92 327.989C164.905 328.445 166.77 329.337 168.385 330.605C170.001 331.872 171.329 333.484 172.277 335.33C174.097 338.797 174.662 342.812 173.873 346.665C173.208 349.99 172.514 353.429 170.14 355.788C166.642 359.27 163.196 360.392 158.676 359.574L149.983 356.679L148.889 327.989Z" fill="black"/>
</g>
<path d="M156.376 358.977C156.56 359.084 156.755 359.168 156.959 359.228C157.527 359.439 158.112 359.601 158.707 359.711C160.906 360.175 163.185 360.053 165.324 359.354C166.802 358.859 168.166 358.059 169.332 357.005C170.653 355.782 171.739 354.316 172.535 352.684C173.411 350.887 174.028 348.969 174.364 346.99C174.813 344.873 174.861 342.687 174.508 340.551C174.055 338.443 173.271 336.424 172.187 334.573C171.252 332.901 169.99 331.445 168.48 330.298C166.97 329.15 165.245 328.335 163.413 327.904C161.91 327.577 160.379 327.402 158.842 327.381C156.632 327.362 154.424 327.509 152.235 327.821L150.456 328.084C150.246 328.097 150.039 328.143 149.842 328.221C150.049 328.246 150.258 328.246 150.465 328.221L152.254 328.074C154.439 327.849 156.635 327.765 158.83 327.822C160.336 327.87 161.833 328.067 163.302 328.41C164.972 328.824 166.548 329.564 167.944 330.591C170.9 332.689 173.057 336.537 173.944 340.691C174.285 342.753 174.24 344.864 173.811 346.909C173.495 348.836 172.906 350.704 172.063 352.456C171.304 354.038 170.263 355.461 168.995 356.651C167.884 357.678 166.583 358.466 165.169 358.969C163.097 359.685 160.886 359.872 158.728 359.514C157.214 359.239 156.396 358.926 156.376 358.977Z" fill="#263238"/>
<g opacity="0.3">
<path opacity="0.3" d="M261.876 320.323C265.966 321.477 270.31 322.777 273.125 326.049C275.985 329.666 277.653 334.12 277.89 338.77C278.127 343.42 276.921 348.027 274.445 351.93C273.16 354.077 271.436 355.913 269.392 357.31C267.292 358.394 264.901 358.737 262.591 358.285C256.454 357.235 251.218 352.161 249.398 346.015C248.505 342.785 248.28 339.4 248.736 336.075C249.192 332.751 250.32 329.561 252.047 326.709C253.704 324.161 259.022 321.246 261.865 320.324" fill="black"/>
</g>
<path d="M336.838 334.953C336.658 334.542 336.511 334.118 336.398 333.683C336.143 332.865 335.776 331.68 335.274 330.232C334.064 326.447 332.277 322.883 329.976 319.673C327.608 316.499 324.419 314.068 320.771 312.657C319.242 312.146 317.665 311.794 316.067 311.609C316.501 311.552 316.941 311.552 317.376 311.609C318.573 311.69 319.755 311.926 320.895 312.312C324.66 313.652 327.955 316.103 330.364 319.359C332.725 322.606 334.514 326.251 335.652 330.129C336.112 331.607 336.428 332.814 336.675 333.652C336.782 334.077 336.836 334.514 336.838 334.953Z" fill="#455A64"/>
<path d="M301.34 226.459C301.448 226.729 301.527 227.011 301.576 227.298C301.709 227.906 301.904 228.724 302.138 229.751C302.62 231.849 303.273 234.994 304.063 238.78C305.637 246.415 307.672 257.006 309.677 268.74C311.682 280.474 313.235 291.139 314.268 298.877C314.79 302.737 315.189 305.873 315.444 308.043C315.557 309.091 315.649 309.92 315.72 310.539C315.767 310.83 315.788 311.125 315.782 311.42C315.697 311.136 315.639 310.845 315.609 310.549C315.516 309.941 315.393 309.113 315.23 308.074C314.912 305.862 314.464 302.747 313.899 298.93C312.764 291.211 311.138 280.558 309.144 268.834C307.15 257.111 305.177 246.51 303.694 238.854C302.958 235.068 302.364 231.985 301.936 229.794C301.741 228.746 301.588 227.936 301.476 227.329C301.408 227.044 301.362 226.753 301.34 226.459Z" fill="#455A64"/>
<path d="M318.808 183.999C318.808 184.084 317.676 184.743 315.924 186.034C313.66 187.712 311.6 189.662 309.788 191.843C307.978 194.034 306.436 196.443 305.195 199.016C304.245 200.998 303.795 202.288 303.713 202.256C303.735 201.931 303.812 201.611 303.939 201.312C304.194 200.471 304.501 199.648 304.86 198.847C306.02 196.194 307.542 193.723 309.379 191.508C311.224 189.289 313.362 187.344 315.73 185.729C316.445 185.24 317.19 184.799 317.96 184.409C318.221 184.23 318.507 184.091 318.808 183.999Z" fill="#455A64"/>
<path d="M195.585 324.161C195.572 324.071 195.572 323.979 195.585 323.888V320.115C195.533 317.515 195.523 313.75 195.237 309.115C195.083 306.797 194.848 304.26 194.449 301.565C194.051 298.869 193.427 296.017 192.701 293.038C191.268 287.082 189.224 280.559 188.795 273.409C188.586 266.694 189.425 259.989 191.281 253.547C192.825 247.59 194.543 242.326 195.781 237.817C196.797 234.297 197.623 230.723 198.256 227.11C198.502 225.833 198.596 224.824 198.709 224.154C198.723 223.892 198.761 223.632 198.822 223.377C198.851 223.168 198.822 223.115 198.883 223.126C198.892 223.213 198.892 223.301 198.883 223.388C198.889 223.648 198.868 223.908 198.822 224.164C198.75 224.846 198.689 225.863 198.473 227.142C197.873 230.798 197.05 234.413 196.009 237.964C194.821 242.452 193.146 247.726 191.622 253.694C189.824 260.082 189.014 266.72 189.223 273.366C189.652 280.433 191.657 286.924 193.078 292.901C193.79 295.728 194.356 298.591 194.776 301.478C195.164 304.195 195.379 306.721 195.502 309.072C195.747 313.727 195.706 317.461 195.686 320.103C195.686 321.372 195.686 322.379 195.634 323.102V323.875C195.633 323.972 195.616 324.069 195.585 324.161Z" fill="#455A64"/>
<path d="M301.985 202.666L301.657 202.582L300.737 202.288C299.55 201.935 298.335 201.69 297.107 201.554C292.566 201.127 287.991 201.769 283.729 203.431C280.782 204.542 277.938 205.921 275.23 207.552C272.287 209.271 269.249 211.306 266.027 213.414C262.68 215.673 259.184 217.691 255.565 219.455C251.655 221.364 247.443 222.544 243.129 222.937C238.78 223.194 234.438 222.344 230.487 220.462C226.853 218.72 223.373 216.656 220.087 214.296C216.917 212.115 213.951 210.008 210.955 208.33C208.236 206.727 205.319 205.507 202.283 204.701C199.77 204.081 197.173 203.904 194.603 204.179C192.664 204.394 190.771 204.928 188.998 205.762C187.498 206.514 186.118 207.497 184.907 208.677C184.971 208.587 185.043 208.503 185.122 208.426C185.276 208.268 185.5 208.02 185.807 207.723C186.736 206.889 187.767 206.184 188.875 205.626C190.658 204.741 192.573 204.167 194.54 203.927C197.148 203.62 199.787 203.773 202.344 204.378C205.421 205.173 208.379 206.39 211.139 207.996C214.136 209.663 217.152 211.76 220.344 213.931C223.616 216.264 227.079 218.303 230.693 220.026C234.56 221.841 238.803 222.655 243.048 222.396C247.304 222.013 251.459 220.855 255.319 218.976C258.92 217.23 262.399 215.229 265.73 212.989C268.962 210.892 272.009 208.878 274.987 207.159C277.723 205.53 280.599 204.159 283.577 203.063C287.891 201.417 292.521 200.828 297.097 201.343C298.333 201.507 299.551 201.788 300.737 202.183L301.647 202.531C301.766 202.557 301.88 202.603 301.985 202.666Z" fill="#FAFAFA"/>
<path d="M341.072 213.813C340.767 214.242 340.424 214.642 340.049 215.008C339.638 215.469 339.197 215.899 338.729 216.298C338.142 216.859 337.524 217.384 336.878 217.871C336.105 218.48 335.3 219.043 334.465 219.56C333.516 220.168 332.537 220.725 331.53 221.227C329.213 222.36 326.786 223.239 324.289 223.848C321.78 224.414 319.219 224.709 316.65 224.729C315.529 224.725 314.41 224.659 313.296 224.531C312.326 224.443 311.362 224.295 310.409 224.09C309.52 223.943 308.752 223.684 308.068 223.503C307.48 223.348 306.903 223.155 306.339 222.925C305.846 222.769 305.37 222.562 304.919 222.306C304.919 222.19 306.963 223.072 310.482 223.699C311.425 223.882 312.378 224.009 313.335 224.077C314.358 224.213 315.482 224.193 316.649 224.224C319.178 224.173 321.696 223.868 324.166 223.313C326.629 222.714 329.027 221.863 331.325 220.774C332.348 220.229 333.371 219.726 334.25 219.171C335.081 218.676 335.887 218.137 336.664 217.556C339.517 215.428 340.981 213.728 341.072 213.813Z" fill="#FAFAFA"/>
<path d="M195.094 233.831C194.298 233.984 193.484 234.009 192.68 233.904C190.731 233.773 188.806 233.383 186.955 232.743C185.104 232.1 183.341 231.219 181.708 230.121C181.004 229.709 180.368 229.185 179.826 228.568C184.384 231.65 189.646 233.464 195.094 233.833V233.831Z" fill="#FAFAFA"/>
<path d="M303.56 240.385C302.401 239.518 301.177 238.746 299.899 238.078C296.31 236.462 292.398 235.743 288.485 235.981C283.515 236.054 277.716 237.396 271.366 239.127C265.016 240.858 258.071 242.996 250.585 244.433C246.945 245.158 243.256 245.593 239.55 245.733C236.096 245.846 232.639 245.678 229.211 245.23C223.419 244.448 217.7 243.179 212.112 241.434C207.335 239.986 203.53 238.624 200.861 237.68L197.845 236.577L197.067 236.272C196.892 236.199 196.801 236.156 196.812 236.147C196.906 236.162 196.999 236.187 197.088 236.22L197.886 236.472L200.954 237.52C203.603 238.401 207.418 239.701 212.204 241.106C217.788 242.785 223.491 244.012 229.262 244.777C232.654 245.198 236.073 245.352 239.488 245.238C243.169 245.087 246.834 244.652 250.452 243.938C257.897 242.502 264.83 240.352 271.202 238.695C277.574 237.039 283.412 235.686 288.434 235.655C292.401 235.461 296.354 236.263 299.95 237.993L300.819 238.465L301.555 238.948C301.944 239.182 302.314 239.448 302.661 239.744L303.306 240.29L303.56 240.385Z" fill="#FAFAFA"/>
<path d="M122.237 358.022C122.237 358.022 132.923 359.638 137.014 361.336C141.452 363.171 146.934 362.101 150.656 359.627C152.772 358.252 154.752 356.668 156.568 354.898L170.231 354.97C172.248 352.657 173.602 349.816 174.144 346.763C174.685 343.709 174.392 340.562 173.298 337.668C172.589 335.658 171.551 333.786 170.231 332.132C168.646 330.296 166.139 328.786 161.701 327.936L145.398 331.187C145.398 331.187 124.729 330.83 116.394 330.432C114.391 330.336 112.409 330.898 110.739 332.037C108.785 333.369 106.576 335.183 106.75 336.305C106.873 337.154 105.523 342.596 109.542 346.109C109.542 346.109 105.919 348.93 107.793 351.583L108.694 352.758C108.694 352.758 106.239 355.904 107.436 357.285C108.633 358.667 119.267 365.401 123.144 363.934C127.022 362.467 123.921 358.754 122.234 358.051" fill="#B78876"/>
<path d="M112.346 340.479C112.803 340.61 113.248 340.782 113.676 340.991C114.514 341.34 115.721 341.83 117.266 342.377C118.033 342.639 118.882 342.922 119.792 343.184C120.702 343.445 121.703 343.687 122.735 344.054C123.859 344.394 124.868 345.048 125.649 345.942C126.077 346.44 126.368 347.044 126.494 347.694C126.62 348.344 126.575 349.017 126.365 349.644C126.09 350.271 125.609 350.779 125.006 351.08C124.438 351.346 123.829 351.506 123.206 351.552C122.062 351.595 120.917 351.507 119.791 351.289C117.907 350.942 116.061 350.405 114.279 349.686C112.755 349.099 111.549 348.543 110.719 348.166C110.279 347.987 109.854 347.77 109.451 347.515C109.91 347.639 110.358 347.8 110.791 347.997C111.641 348.333 112.836 348.837 114.38 349.383C116.161 350.044 117.995 350.542 119.862 350.871C120.951 351.076 122.059 351.154 123.165 351.103C123.731 351.061 124.286 350.916 124.802 350.673C125.317 350.425 125.725 349.991 125.948 349.454C126.126 348.906 126.162 348.319 126.05 347.753C125.939 347.186 125.685 346.659 125.313 346.225C124.584 345.392 123.647 344.779 122.603 344.452C121.579 344.085 120.609 343.844 119.688 343.549C118.767 343.255 117.929 342.962 117.162 342.679C115.952 342.23 114.764 341.719 113.603 341.147C113.167 340.96 112.746 340.736 112.346 340.479Z" fill="#AA6550"/>
<path d="M113.473 332.54C113.923 332.685 114.364 332.859 114.793 333.063C115.632 333.42 116.838 333.923 118.359 334.479C119.88 335.034 121.713 335.643 123.77 336.199C124.91 336.405 125.987 336.879 126.919 337.582C127.411 338.022 127.731 338.629 127.819 339.292C127.899 339.96 127.789 340.637 127.502 341.243C127.213 341.82 126.809 342.329 126.318 342.739C125.827 343.149 125.259 343.449 124.648 343.622C123.542 343.965 122.372 344.037 121.233 343.831C119.366 343.414 117.539 342.828 115.773 342.08L112.142 340.707C111.694 340.557 111.26 340.368 110.844 340.14C111.307 340.235 111.761 340.369 112.203 340.539L115.833 341.777C117.595 342.468 119.407 343.014 121.253 343.412C122.329 343.597 123.431 343.526 124.475 343.203C125.025 343.042 125.538 342.768 125.982 342.396C126.425 342.024 126.789 341.563 127.052 341.042C127.33 340.54 127.435 339.956 127.35 339.385C127.264 338.814 126.994 338.29 126.582 337.896C125.706 337.235 124.695 336.787 123.626 336.585C121.58 335.998 119.72 335.358 118.206 334.761C116.691 334.164 115.495 333.608 114.677 333.208C114.256 333.025 113.853 332.801 113.473 332.54Z" fill="#AA6550"/>
<path d="M156.377 336.064L146.917 332.089C146.917 332.089 120.664 318.834 120.205 319.506C119.745 320.177 118.312 320.081 118.558 323.407C118.804 326.732 134.113 333.738 134.584 334.942C135.055 336.145 134.113 341.883 139.697 346.162C145.281 350.44 149.433 350.631 149.433 350.631" fill="#B78876"/>
<path d="M149.462 350.588H149.227C149.007 350.571 148.788 350.543 148.572 350.503C147.733 350.358 146.908 350.137 146.108 349.843C144.836 349.379 143.607 348.8 142.435 348.112C140.872 347.223 139.419 346.142 138.11 344.892C136.541 343.309 135.451 341.296 134.97 339.093C134.723 337.887 134.559 336.664 134.479 335.434C134.46 335.289 134.433 335.146 134.398 335.005C134.336 334.9 134.252 334.81 134.152 334.742C133.906 334.549 133.65 334.371 133.385 334.208C132.853 333.872 132.29 333.547 131.719 333.211C129.448 331.911 127.024 330.59 124.56 329.08C123.343 328.325 122.116 327.528 120.93 326.626C120.324 326.168 119.756 325.66 119.232 325.106C118.955 324.816 118.715 324.492 118.516 324.141C118.42 323.95 118.351 323.745 118.312 323.533C118.298 323.331 118.298 323.127 118.312 322.925C118.239 322.113 118.399 321.297 118.772 320.576C118.992 320.23 119.286 319.939 119.632 319.727C119.768 319.64 119.892 319.534 120 319.412L120.092 319.317C120.15 319.278 120.217 319.256 120.286 319.254H120.47L120.753 319.328C122.186 319.821 123.484 320.44 124.845 321.027C127.443 322.211 129.958 323.407 132.28 324.561C136.994 326.857 141.218 328.976 144.757 330.78C145.635 331.22 146.475 331.671 147.283 332.038L149.594 333.034L153.306 334.628L155.638 335.676L156.242 335.96L156.436 336.065L156.221 336.001L155.607 335.769L153.234 334.816L149.491 333.284L147.16 332.33C146.342 331.963 145.513 331.523 144.612 331.082L132.103 324.957C129.742 323.826 127.255 322.629 124.658 321.456C123.369 320.878 122.04 320.25 120.68 319.789L120.434 319.725H120.32V319.62C120.617 319.831 120.392 319.684 120.454 319.737C120.317 319.899 120.159 320.04 119.983 320.156C119.692 320.335 119.444 320.578 119.256 320.868C118.94 321.517 118.803 322.243 118.86 322.966C118.839 323.328 118.909 323.69 119.065 324.015C119.243 324.329 119.459 324.618 119.709 324.875C120.215 325.408 120.762 325.899 121.345 326.343C122.512 327.235 123.729 328.032 124.935 328.776C127.358 330.285 129.772 331.62 132.095 332.97C132.667 333.306 133.227 333.631 133.771 334.019C134.046 334.191 134.312 334.376 134.568 334.575C134.731 334.686 134.859 334.843 134.937 335.026C134.988 335.189 135.022 335.358 135.04 335.529C135.113 336.751 135.267 337.967 135.499 339.168C135.958 341.307 137.001 343.267 138.506 344.82C139.784 346.064 141.202 347.148 142.729 348.05C143.882 348.747 145.09 349.343 146.34 349.833C147.128 350.144 147.938 350.393 148.762 350.578C149.039 350.641 149.264 350.672 149.407 350.694L149.462 350.588Z" fill="#AA6550"/>
<path d="M120.193 351.226C120.548 351.283 120.892 351.392 121.216 351.551C122.104 351.943 122.934 352.462 123.681 353.092C124.205 353.528 124.681 354.02 125.102 354.56C125.364 354.877 125.562 355.244 125.685 355.64C125.808 356.036 125.853 356.453 125.819 356.867C125.722 357.327 125.503 357.75 125.185 358.089C124.867 358.428 124.463 358.67 124.018 358.786C123.097 359.021 122.129 358.97 121.237 358.639C118.221 357.652 115.304 356.374 112.523 354.822C111.686 354.355 110.877 353.836 110.1 353.27C109.803 353.079 109.525 352.858 109.272 352.609C109.595 352.748 109.903 352.92 110.191 353.123C110.775 353.479 111.623 353.973 112.687 354.538C115.479 355.982 118.375 357.205 121.348 358.198C122.155 358.498 123.029 358.553 123.865 358.356C124.237 358.268 124.578 358.076 124.85 357.799C125.121 357.523 125.311 357.175 125.399 356.794C125.46 356.064 125.236 355.34 124.776 354.78C124.386 354.251 123.944 353.766 123.456 353.332C122.459 352.492 121.363 351.784 120.193 351.226Z" fill="#AA6550"/>
<path d="M270.589 324.455L253.734 324.811C253.734 324.811 228.475 315.447 223.28 316.349C218.595 317.146 201.466 328.817 198.112 331.135C197.735 331.384 197.447 331.752 197.293 332.183C196.963 333.097 196.991 334.106 197.373 334.999C197.754 335.891 198.46 336.596 199.339 336.965L199.696 337.123L199.544 337.646C199.34 338.324 199.249 339.033 199.277 339.742C199.318 340.279 199.525 340.788 199.867 341.196C200.209 341.605 200.669 341.891 201.18 342.014C201.691 342.136 202.227 342.089 202.71 341.879C203.194 341.669 203.599 341.307 203.869 340.845L203.224 342.019C202.961 342.497 202.837 343.043 202.867 343.592L202.928 344.641C202.958 345.221 203.159 345.778 203.504 346.238C203.849 346.699 204.322 347.041 204.861 347.221C205.374 347.392 205.925 347.407 206.447 347.266C206.969 347.125 207.44 346.832 207.804 346.424C209.972 343.981 214.666 339.084 217.836 338.53C221.28 338.105 224.749 337.927 228.217 337.995C228.923 337.999 229.61 338.222 230.19 338.634C230.77 339.045 231.216 339.626 231.469 340.301C229.587 340.438 216.457 347.453 211.812 349.97C211.093 350.338 210.472 350.88 210.002 351.548C209.532 352.217 209.227 352.992 209.113 353.808C208.939 355.297 209.676 356.859 212.55 356.167C218.685 354.689 229.832 349.456 229.832 349.456C229.832 349.456 235.569 347.778 239.282 350.505C244.498 354.277 246.89 355.664 251.38 354.144C254.105 353.207 256.719 351.961 259.173 350.429L274.452 351.949C274.452 351.949 283.803 336.283 270.589 324.455Z" fill="#B78876"/>
<path d="M231.573 329.185C231.573 329.29 229.773 328.703 226.828 328.514C222.973 328.247 219.112 328.918 215.558 330.47C212.004 332.022 208.857 334.413 206.374 337.448C204.473 339.766 203.655 341.486 203.571 341.433C203.708 341.007 203.898 340.602 204.137 340.227C204.718 339.174 205.38 338.171 206.119 337.228C208.572 334.081 211.747 331.606 215.361 330.025C218.975 328.444 222.915 327.806 226.828 328.168C228.005 328.269 229.171 328.473 230.315 328.776C230.746 328.871 231.167 329.008 231.573 329.185Z" fill="#AA6550"/>
<path d="M228.894 322.893C227.288 322.398 225.629 322.102 223.954 322.012C219.892 321.991 215.908 323.147 212.458 325.346C209.041 327.597 205.926 330.298 203.193 333.379L200.657 336.147C200.363 336.503 200.042 336.833 199.695 337.134C199.929 336.732 200.207 336.359 200.524 336.022C201.076 335.33 201.903 334.344 202.947 333.149C205.635 329.968 208.755 327.199 212.212 324.927C215.729 322.675 219.818 321.541 223.963 321.666C225.212 321.723 226.447 321.956 227.634 322.358C227.955 322.459 228.27 322.581 228.575 322.725C228.69 322.761 228.798 322.818 228.894 322.893Z" fill="#AA6550"/>
<path d="M63.7517 363.886H218.003L198.102 252.876C197.76 250.968 196.777 249.243 195.323 248.002C193.869 246.76 192.037 246.081 190.145 246.081H51.5405C49.3951 246.081 47.3374 246.954 45.8201 248.51C44.3029 250.065 43.4502 252.175 43.4498 254.374C43.4501 254.899 43.4983 255.422 43.594 255.938L63.7517 363.886Z" fill="#455A64"/>
<path d="M218 363.884H276.508L276.272 363.706C271.052 359.699 264.751 357.446 258.233 357.257L216.394 355.998L218 363.884Z" fill="#455A64"/>
<path d="M180.949 246.226C181.361 246.169 181.777 246.141 182.194 246.143C183.386 246.159 184.558 246.457 185.62 247.013C187.293 247.896 188.705 249.221 189.711 250.851C190.986 253.058 191.843 255.491 192.237 258.024C192.738 260.835 193.178 263.949 193.73 267.273C194.282 270.598 194.876 274.153 195.561 277.885C196.911 285.341 198.496 293.521 200.234 302.099C203.711 319.244 206.932 334.743 209.049 346.005C210.073 351.635 210.921 356.199 211.484 359.355C211.749 360.906 211.964 362.123 212.127 362.993C212.199 363.381 212.26 363.685 212.3 363.937C212.32 364.044 212.348 364.15 212.384 364.252C212.401 364.144 212.401 364.035 212.384 363.927C212.359 363.607 212.318 363.289 212.26 362.973C212.127 362.092 211.953 360.876 211.717 359.323C211.237 356.177 210.481 351.573 209.468 345.932C207.422 334.639 204.292 319.117 200.815 301.973C199.087 293.405 197.471 285.195 196.101 277.78C195.406 274.059 194.792 270.513 194.219 267.19C193.645 263.866 193.196 260.772 192.655 257.94C192.229 255.368 191.33 252.901 190.006 250.673C188.943 249.011 187.463 247.674 185.721 246.803C184.625 246.25 183.413 245.983 182.193 246.027C181.771 246.036 181.353 246.103 180.949 246.226Z" fill="#263238"/>
<path d="M118.001 307.892C115.089 304.906 115.089 300.066 118.001 297.08C120.913 294.095 125.633 294.095 128.545 297.08C131.456 300.066 131.456 304.906 128.545 307.892C125.633 310.877 120.913 310.877 118.001 307.892Z" fill="#F5F5F5"/>
<path d="M469.275 363.778C469.275 363.925 369.523 364.051 246.504 364.051C123.485 364.051 23.7133 363.925 23.7133 363.778C23.7133 363.631 123.394 363.546 246.504 363.546C369.614 363.546 469.275 363.632 469.275 363.778Z" fill="#263238"/>
</svg>
