<svg width="197" height="244" viewBox="0 0 197 244" fill="none" xmlns="http://www.w3.org/2000/svg">
<path d="M98.253 242.891C152.097 242.891 195.746 239.32 195.746 234.915C195.746 230.51 152.097 226.939 98.253 226.939C44.4094 226.939 0.760498 230.51 0.760498 234.915C0.760498 239.32 44.4094 242.891 98.253 242.891Z" fill="#E6E7E8"/>
<path d="M69.8975 54.2862C68.4024 54.3869 66.9106 54.0462 65.6067 53.3061C64.3028 52.5661 63.244 51.4593 62.5613 50.1225C61.8786 48.7858 61.602 47.2778 61.7656 45.7851C61.9292 44.2924 62.5259 42.8806 63.4819 41.7242C59.2998 39.7933 57.0883 34.8343 57.3948 30.2374C57.7014 25.6405 60.1209 21.4605 63.1425 17.9278C65.6278 15.0424 68.748 12.4422 72.4812 11.7291C73.1879 11.6585 73.8769 11.4655 74.5176 11.1586C75.0217 10.8032 75.4591 10.3612 75.8095 9.85302C78.5355 6.3642 81.8966 3.16063 86.1006 1.75632C90.3047 0.352014 95.4503 1.15291 98.2639 4.58687C99.6704 3.36331 101.414 2.59652 103.265 2.38799C105.116 2.17946 106.987 2.539 108.629 3.41905C110.271 4.2991 111.609 5.65817 112.463 7.31641C113.318 8.97466 113.65 10.8539 113.416 12.7055C116.378 13.1437 119.155 14.4141 121.426 16.3695C123.697 18.3248 125.369 20.8851 126.247 23.7535C127.813 29.5243 125.152 36.3045 119.843 39.0363C119.229 39.3544 118.496 39.7713 118.518 40.4515C118.578 40.8621 118.761 41.2446 119.043 41.5487C120.751 43.9952 119.897 47.5389 117.949 49.7551C116 51.9712 113.088 53.1452 110.285 54.2642C110.908 54.8907 111.324 55.6946 111.475 56.5663C111.626 57.438 111.504 58.3352 111.128 59.1354C110.316 60.7374 109.052 62.065 107.493 62.9534C101.406 66.892 93.8738 65.6632 87.0531 65.8059C80.758 65.9375 74.5066 61.9111 70.3354 57.3471C69.5253 56.4804 68.8793 54.9005 69.8975 54.2862Z" fill="white"/>
<path d="M94.5964 66.4311C93.5016 66.4311 92.4068 66.4311 91.3996 66.4311C89.9763 66.4311 88.4874 66.3653 87.086 66.4311C81.3711 66.5299 75.0432 63.3153 69.9414 57.7969C69.5823 57.436 69.3002 57.0059 69.112 56.5326C68.9238 56.0592 68.8335 55.5525 68.8466 55.0431C68.8404 55.0031 68.8404 54.9624 68.8466 54.9224C67.3726 54.8515 65.9453 54.3816 64.7165 53.5629C63.4877 52.7441 62.5031 51.607 61.8676 50.2724C61.232 48.9379 60.9691 47.4556 61.1069 45.9833C61.2446 44.511 61.7779 43.1036 62.65 41.9106C58.8729 39.8261 56.519 35.1195 56.8475 30.2044C57.1212 26.0025 59.1028 21.7567 62.7266 17.5657C65.8796 13.9233 69.0327 11.8388 72.3828 11.1915L72.755 11.1256C73.2817 11.1049 73.7947 10.9512 74.2464 10.6789C74.698 10.4066 75.0738 10.0244 75.3388 9.56773C78.7765 5.17927 82.2251 2.48037 85.9255 1.24064C90.4909 -0.284353 95.4941 0.779846 98.3297 3.81885C99.822 2.66427 101.616 1.9678 103.495 1.81369C105.374 1.65959 107.258 2.05445 108.917 2.95052C110.577 3.84658 111.942 5.20544 112.848 6.86269C113.753 8.51995 114.159 10.4046 114.018 12.2886C116.976 12.8243 119.731 14.1633 121.982 16.1598C124.233 18.1562 125.894 20.7335 126.784 23.6108C128.448 29.7437 125.503 36.7762 120.094 39.5299C119.547 39.8042 119.054 40.1114 119.065 40.4405C119.12 40.6682 119.229 40.8791 119.383 41.0549L119.481 41.1975C121.43 43.9622 120.324 47.8351 118.299 50.0732C116.296 52.0437 113.88 53.5428 111.227 54.4616C111.706 55.1805 111.995 56.0094 112.068 56.8709C112.141 57.7324 111.995 58.5983 111.643 59.3877C110.805 61.079 109.482 62.4811 107.844 63.4141C103.782 66.0472 99.1836 66.4311 94.5964 66.4311ZM88.3013 65.2463C89.3413 65.2463 90.3924 65.2463 91.4215 65.2463C96.8955 65.356 102.534 65.4767 107.209 62.4486C108.682 61.6262 109.875 60.3805 110.635 58.872C110.975 58.1731 111.089 57.3856 110.961 56.6188C110.834 55.852 110.471 55.144 109.924 54.5933C109.852 54.5323 109.797 54.4538 109.765 54.3654C109.732 54.277 109.723 54.1817 109.738 54.0886C109.753 53.9942 109.792 53.9052 109.852 53.8303C109.911 53.7554 109.989 53.697 110.077 53.6607C112.639 52.6295 115.551 51.4665 117.489 49.2723C119.23 47.3523 120.204 44.061 118.584 41.7571L118.485 41.6364C118.187 41.2915 118.003 40.862 117.96 40.4076C117.96 39.3105 119 38.7839 119.58 38.4877C124.55 35.9204 127.244 29.4913 125.711 23.8302C124.845 21.0789 123.223 18.6276 121.031 16.7572C118.839 14.8867 116.166 13.6726 113.318 13.254C113.176 13.2323 113.048 13.1558 112.963 13.0409C112.877 12.9261 112.839 12.782 112.858 12.6396C113.073 10.9016 112.759 9.13906 111.957 7.58302C111.155 6.02698 109.902 4.7501 108.364 3.9198C106.825 3.0895 105.072 2.74453 103.334 2.93013C101.596 3.11572 99.9549 3.82322 98.6253 4.95985C98.5703 5.00834 98.506 5.04504 98.4364 5.06768C98.3667 5.09032 98.2931 5.09843 98.2202 5.0915C98.1479 5.08609 98.0776 5.06575 98.0135 5.03177C97.9494 4.99778 97.8931 4.95089 97.848 4.89402C95.3847 1.88793 90.6223 0.790817 86.2868 2.24998C82.7944 3.41292 79.51 6.00211 76.2474 10.1602C75.861 10.723 75.3749 11.2101 74.8133 11.5974C74.2353 11.9057 73.6033 12.0994 72.9521 12.1679L72.6017 12.2337C69.5034 12.8371 66.5475 14.801 63.5586 18.2459C60.0991 22.2504 58.216 26.2877 57.9532 30.2374C57.6357 34.9769 60.0005 39.4751 63.7229 41.2085C63.7985 41.2438 63.8653 41.2956 63.9184 41.3601C63.9714 41.4247 64.0094 41.5003 64.0294 41.5815C64.0469 41.6641 64.0452 41.7497 64.0243 41.8315C64.0034 41.9133 63.9639 41.9892 63.909 42.0533C63.0062 43.1224 62.4391 44.4353 62.2793 45.8266C62.1194 47.2179 62.3738 48.6256 63.0105 49.8724C63.6472 51.1191 64.6377 52.1493 65.8574 52.8331C67.077 53.517 68.4713 53.8241 69.8647 53.7156C69.9894 53.7029 70.1147 53.7343 70.2187 53.8044C70.3227 53.8746 70.3989 53.979 70.434 54.0996C70.4712 54.2173 70.4677 54.3442 70.424 54.4597C70.3803 54.5752 70.2989 54.6725 70.1932 54.7359C70.1255 54.7735 70.0682 54.8272 70.0262 54.8922C69.9842 54.9573 69.9588 55.0317 69.9523 55.1089C69.971 55.8091 70.2617 56.4744 70.7625 56.9631C75.6015 62.2511 81.7105 65.345 87.0641 65.2353L88.3013 65.2463Z" fill="#231F20"/>
<path d="M148.089 214.958C150.596 214.958 169.284 216.988 178.032 221.344C186.779 225.699 188.673 226.039 186.899 231.92C185.126 237.8 169.722 239.249 157.997 237.032C150.445 235.477 143.16 232.823 136.374 229.155L148.089 214.958Z" fill="white"/>
<path d="M169.054 238.601C165.313 238.587 161.582 238.219 157.909 237.504C150.305 235.936 142.97 233.268 136.133 229.583C136.07 229.545 136.015 229.494 135.971 229.433C135.928 229.373 135.898 229.305 135.882 229.232C135.869 229.16 135.872 229.087 135.891 229.017C135.91 228.947 135.944 228.881 135.991 228.826L147.705 214.629C147.748 214.571 147.805 214.524 147.869 214.492C147.934 214.459 148.005 214.442 148.078 214.443H148.187C151.242 214.443 169.492 216.527 178.251 220.883L180.221 221.859C187.239 225.304 189.133 226.248 187.381 232.063C186.275 235.749 179.072 238.601 169.054 238.601ZM137.151 229.002C143.744 232.489 150.795 235.027 158.095 236.539C169.864 238.733 184.797 237.175 186.429 231.777C187.929 226.774 186.845 226.237 179.783 222.77L177.813 221.794C169.459 217.635 151.592 215.518 148.319 215.452L137.151 229.002Z" fill="#231F20"/>
<path d="M150.596 214.904C152.249 215.309 153.688 216.326 154.624 217.751C155.56 219.175 155.924 220.901 155.643 222.583C154.822 228.826 141.651 229.089 140.896 229.166C140.14 229.243 150.596 214.904 150.596 214.904Z" fill="white"/>
<path d="M140.896 229.517C140.798 229.514 140.703 229.486 140.618 229.437C140.534 229.387 140.464 229.316 140.414 229.232C140.25 228.903 139.987 228.398 150.191 214.563C150.249 214.483 150.331 214.422 150.425 214.389C150.518 214.355 150.62 214.351 150.716 214.377C150.771 214.377 157.011 215.946 156.19 222.561C155.358 228.914 143.359 229.473 140.961 229.517H140.896ZM150.749 215.441C147.541 219.83 142.768 226.412 141.575 228.497C144.574 228.354 154.438 227.509 155.106 222.43C155.364 220.943 155.066 219.414 154.271 218.133C153.475 216.853 152.237 215.91 150.793 215.485L150.749 215.441Z" fill="#231F20"/>
<path d="M52.9827 229.199C52.5996 229.396 49.0195 234.059 33.4076 235.924C17.7957 237.789 12.0041 241.158 8.52265 232.94C5.04117 224.723 7.42785 219.413 15.0915 217.065C22.7551 214.717 43.9834 212.775 48.1437 216.703C52.304 220.631 52.9827 229.199 52.9827 229.199Z" fill="white"/>
<path d="M16.2301 238.711C12.3654 238.711 9.88024 237.416 8.06286 233.138C6.24548 228.859 5.97178 225.184 7.2965 222.342C8.52268 219.709 11.1064 217.767 14.9601 216.593C22.164 214.399 44.0492 212.139 48.4941 216.341C52.7529 220.356 53.4316 228.804 53.4645 229.155C53.4695 229.248 53.4499 229.341 53.4076 229.424C53.3653 229.506 53.3018 229.577 53.2236 229.627L53.0704 229.759C48.5707 233.862 39.9327 235.65 33.4514 236.418C30.0904 236.824 27.2001 237.296 24.693 237.713C21.9005 238.254 19.0718 238.588 16.2301 238.711ZM36.4402 214.947C28.9408 214.947 19.8539 216.143 15.2776 217.548C11.6867 218.645 9.29999 220.4 8.20518 222.77C7.00089 225.337 7.26364 228.694 8.98249 232.743C11.5553 238.832 15.3543 238.228 24.5068 236.725C27.0687 236.308 29.9809 235.837 33.3529 235.431C39.6809 234.674 48.1218 232.94 52.4244 229.013C52.2712 227.575 51.3296 220.477 47.7934 217.098C46.2169 215.54 41.7172 214.947 36.4402 214.947Z" fill="#231F20"/>
<path d="M57.9642 225.842C57.9642 225.842 50.8808 231.766 46.1622 231.064C41.4436 230.362 34.9185 227.773 37.546 222.671C40.1736 217.57 57.0883 214.498 57.0883 214.498L57.9642 225.842Z" fill="white"/>
<path d="M46.9723 231.624C46.6754 231.624 46.379 231.602 46.0855 231.558C42.5493 231.031 38.2795 229.517 36.911 226.829C36.5731 226.141 36.4131 225.378 36.4457 224.611C36.4782 223.845 36.7022 223.098 37.0971 222.441C39.8122 217.153 56.3 214.136 57.0007 214.004C57.0696 213.992 57.1403 213.995 57.2081 214.012C57.276 214.029 57.3396 214.06 57.3948 214.103C57.4503 214.147 57.4963 214.201 57.5302 214.264C57.564 214.326 57.585 214.394 57.5919 214.465L58.4677 225.798C58.4738 225.878 58.4611 225.958 58.4307 226.033C58.4003 226.107 58.353 226.173 58.2926 226.226C58.0079 226.456 51.7785 231.624 46.9723 231.624ZM56.6394 215.101C53.7382 215.672 40.2173 218.557 38.0277 222.902C37.7047 223.418 37.5173 224.007 37.4828 224.615C37.4483 225.223 37.568 225.83 37.8306 226.379C39.0349 228.716 42.9762 230.077 46.2716 230.57C50.2895 231.174 56.3219 226.544 57.4824 225.622L56.6394 215.101Z" fill="#231F20"/>
<path d="M143.052 176.077C143.052 176.077 135.586 205.26 108.336 210.833C81.0864 216.407 66.9853 214.937 57.3291 196.505C47.6729 178.074 54.0447 166.795 54.0447 166.795L140.042 165.084L143.052 176.077Z" fill="#231F20"/>
<path d="M85.8598 214.245C72.7221 214.245 63.6024 209.66 56.8365 196.757C47.1584 178.271 53.3222 166.993 53.5521 166.521C53.5998 166.438 53.6684 166.369 53.751 166.321C53.8336 166.273 53.9273 166.247 54.0228 166.247L140.02 164.535C140.144 164.529 140.266 164.566 140.366 164.64C140.466 164.714 140.537 164.82 140.567 164.941L143.545 175.912C143.567 176.006 143.567 176.104 143.545 176.198C143.469 176.494 135.684 205.82 108.402 211.36C99.7858 213.148 92.3301 214.245 85.8598 214.245ZM54.406 167.333C53.5521 169.143 49.2385 179.873 57.8109 196.253C67.6094 214.904 81.8966 215.694 108.172 210.296C133.823 205.052 141.826 178.227 142.428 176.077L139.593 165.643L54.406 167.333Z" fill="#231F20"/>
<path d="M47.6292 176.34C47.6292 176.34 33.539 130.7 35.3893 102.098C37.2395 73.4966 47.8482 72.4763 62.3215 70.8635C68.748 70.1394 102.983 65.0598 115.803 80.178C128.623 95.2962 151.187 166.104 151.187 166.104L47.6292 176.34Z" fill="#34A853"/>
<path d="M98.4829 70.9403L96.2933 86.2121C96.2933 86.2121 91.4981 94.1004 81.8966 90.1069C72.2952 86.1134 72.109 78.7518 72.109 78.7518L76.6634 50.534C76.6634 50.534 86.7904 41.4279 91.0492 24.0277C91.0492 24.0277 99.534 38.8607 111.851 42.1959C111.851 42.1959 111.029 54.5165 108.829 62.1524C106.639 69.536 98.6362 70.8525 98.4829 70.9403Z" fill="white"/>
<path d="M87.0422 91.7745C85.1801 91.752 83.3413 91.3566 81.6339 90.6115C71.7806 86.5303 71.5178 79.0809 71.5069 78.7627L76.0941 50.4462C76.1164 50.3207 76.1777 50.2055 76.2693 50.1171C76.3678 50.0293 86.3196 40.9233 90.5018 23.8961C90.5318 23.7915 90.5911 23.6977 90.6725 23.6258C90.754 23.5539 90.8543 23.5068 90.9616 23.4901C91.0686 23.475 91.1777 23.4919 91.2751 23.5388C91.3725 23.5856 91.4539 23.6603 91.509 23.7534C91.5966 23.907 100.038 38.4328 111.96 41.6583C112.083 41.6912 112.191 41.7662 112.265 41.8704C112.339 41.9746 112.374 42.1013 112.365 42.2288C112.365 42.3495 111.511 54.703 109.322 62.306C107.515 68.5705 101.658 70.7209 98.9865 71.3792L96.7969 86.2889C96.7868 86.3616 96.7646 86.432 96.7312 86.4974C95.6523 88.0867 94.2102 89.3947 92.5249 90.3126C90.8396 91.2305 88.9599 91.7317 87.0422 91.7745ZM77.1889 50.7973L72.6564 78.8395C72.6564 79.0151 72.9849 85.7952 82.1156 89.6022C90.6441 93.1459 95.2532 86.8375 95.7788 86.0146L97.9684 70.8635C97.9785 70.7803 98.0088 70.7009 98.0565 70.6321C98.1042 70.5633 98.1679 70.5071 98.2421 70.4685C98.3429 70.4099 98.4547 70.3725 98.5705 70.3588C100.924 69.7993 106.595 67.8574 108.281 61.9988C110.208 55.3174 111.084 44.8729 111.248 42.6019C100.957 39.5738 93.4906 28.9428 91.2572 25.4211C87.0969 40.8684 78.3713 49.5905 77.1889 50.7973Z" fill="#231F20"/>
<path d="M82.5645 50.9619C82.4416 49.5345 81.8573 48.1863 80.9004 47.122C79.97 46.1657 78.8809 45.3787 77.6817 44.7961C77.0597 44.4107 76.3608 44.1672 75.6344 44.0829C75.1205 44.088 74.6119 44.1884 74.1345 44.3792C72.9688 44.7518 71.9746 45.5301 71.3318 46.5734C70.9086 47.4585 70.7093 48.4344 70.7515 49.4149C70.7083 50.4761 70.804 51.5384 71.0362 52.5746C71.2933 53.6093 71.754 54.5821 72.3913 55.436C73.0286 56.2899 73.8296 57.0077 74.7473 57.5472C75.6651 58.0868 76.6811 58.4373 77.7358 58.5781C78.7906 58.7189 79.8627 58.6473 80.8895 58.3674" fill="white"/>
<path d="M78.8093 59.1463C76.9041 59.1481 75.053 58.5122 73.5495 57.3395C72.0461 56.1668 70.9766 54.5246 70.5107 52.6734C70.2568 51.5958 70.1536 50.4881 70.2041 49.382C70.1655 48.3135 70.3872 47.2516 70.8501 46.2882C71.5476 45.1412 72.6307 44.2814 73.9046 43.8636C74.4493 43.6514 75.028 43.5399 75.6125 43.5344C76.4235 43.62 77.2053 43.8861 77.9006 44.3134C79.1523 44.9257 80.2893 45.7496 81.2617 46.749C82.3001 47.9049 82.9342 49.3685 83.0681 50.918C83.0773 51.0629 83.0299 51.2058 82.9359 51.3163C82.8419 51.4269 82.7087 51.4965 82.5645 51.5104C82.4205 51.5169 82.2794 51.4685 82.1697 51.3748C82.0599 51.2811 81.9898 51.1493 81.9733 51.0058C81.8658 49.7004 81.3396 48.4649 80.4734 47.484C79.5835 46.5784 78.5423 45.8358 77.397 45.2898C76.8509 44.939 76.2339 44.7142 75.5906 44.6315C75.147 44.6352 74.7084 44.7246 74.2987 44.8948C73.2646 45.2148 72.3742 45.886 71.7806 46.7928C71.4088 47.6032 71.2362 48.491 71.277 49.382C71.2245 50.3956 71.3167 51.4116 71.5507 52.3991C71.7916 53.3595 72.2206 54.2623 72.8127 55.0551C73.4049 55.8479 74.1484 56.5148 75 57.017C75.8516 57.5193 76.7944 57.8469 77.7735 57.9808C78.7526 58.1146 79.7485 58.0521 80.7033 57.7969C80.8427 57.7599 80.9909 57.7794 81.116 57.8513C81.241 57.9232 81.3327 58.0416 81.3711 58.1809C81.3892 58.2508 81.3934 58.3235 81.3834 58.395C81.3733 58.4665 81.3493 58.5353 81.3127 58.5975C81.2761 58.6597 81.2276 58.714 81.17 58.7573C81.1124 58.8007 81.0468 58.8322 80.977 58.8501C80.2709 59.0456 79.5418 59.1452 78.8093 59.1463Z" fill="#231F20"/>
<path d="M96.3262 46.6063C96.3262 46.6063 100.629 55.109 99.2164 56.3267C97.8042 57.5445 94.4103 56.2061 94.4103 56.2061" fill="white"/>
<path d="M97.4538 57.3909C96.3291 57.3562 95.2184 57.1299 94.1694 56.7217C94.1025 56.6951 94.0415 56.6555 93.9899 56.6053C93.9383 56.555 93.8971 56.4951 93.8686 56.4288C93.8401 56.3626 93.8249 56.2914 93.824 56.2193C93.823 56.1472 93.8362 56.0756 93.8629 56.0086C93.9188 55.875 94.0241 55.7684 94.1569 55.7112C94.2896 55.6539 94.4393 55.6504 94.5745 55.7014C95.3737 56.0086 97.8589 56.7217 98.8114 55.9098C99.3916 55.4271 97.9465 51.1045 95.8007 46.8477C95.767 46.7838 95.7466 46.7138 95.7405 46.6419C95.7344 46.5699 95.7429 46.4975 95.7653 46.4289C95.7878 46.3603 95.8239 46.2969 95.8713 46.2426C95.9188 46.1883 95.9767 46.1441 96.0415 46.1126C96.1713 46.0504 96.32 46.0408 96.4566 46.0858C96.5933 46.1308 96.7073 46.2268 96.7751 46.354C98.1217 49.0309 101.1 55.3942 99.534 56.7436C98.9342 57.1902 98.2005 57.4186 97.4538 57.3909Z" fill="#231F20"/>
<path d="M90.9814 44.6845C91.0639 43.6699 90.5446 42.7995 89.8214 42.7405C89.0982 42.6814 88.4451 43.456 88.3625 44.4706C88.28 45.4851 88.7994 46.3555 89.5225 46.4146C90.2457 46.4736 90.8989 45.6991 90.9814 44.6845Z" fill="#231F20"/>
<path d="M104.545 46.5625C104.62 45.5474 104.095 44.6807 103.371 44.6267C102.648 44.5727 102 45.3518 101.925 46.367C101.849 47.3821 102.375 48.2488 103.098 48.3028C103.822 48.3568 104.47 47.5777 104.545 46.5625Z" fill="#231F20"/>
<path d="M95.2095 64.1931C93.5354 64.2225 91.879 63.8462 90.3814 63.0959C87.7648 61.7246 86.0897 59.1025 85.4 55.3065C85.3875 55.2351 85.3891 55.162 85.4049 55.0913C85.4207 55.0206 85.4504 54.9537 85.4921 54.8945C85.5338 54.8354 85.5868 54.7851 85.6481 54.7466C85.7093 54.708 85.7776 54.6821 85.8489 54.6701C85.9907 54.6474 86.1359 54.6803 86.2541 54.762C86.3724 54.8437 86.4547 54.968 86.4839 55.109C87.097 58.5539 88.5859 60.9127 90.8631 62.1195C95.4613 64.5332 101.932 61.6148 101.997 61.5819C102.129 61.5226 102.28 61.5181 102.415 61.5695C102.551 61.6209 102.66 61.724 102.72 61.8562C102.751 61.9216 102.768 61.9924 102.771 62.0647C102.774 62.1369 102.762 62.209 102.737 62.2766C102.711 62.3442 102.672 62.4059 102.622 62.4581C102.572 62.5103 102.512 62.5518 102.446 62.5803C100.16 63.5785 97.7027 64.1261 95.2095 64.1931Z" fill="#231F20"/>
<path d="M98.4829 70.9403C98.4829 70.9403 88.6297 71.7522 83.5497 67.7368C83.5497 67.7368 87.8742 81.4507 96.9611 81.4068L98.4829 70.9403Z" fill="#231F20"/>
<path d="M96.8954 81.9554C87.5458 81.9554 83.1885 68.4718 83.0024 67.9013C82.9702 67.7888 82.974 67.669 83.0132 67.5588C83.0525 67.4486 83.1253 67.3535 83.2213 67.2869C83.3136 67.2148 83.4273 67.1757 83.5443 67.1757C83.6613 67.1757 83.775 67.2148 83.8673 67.2869C88.761 71.1158 98.3187 70.3808 98.4172 70.3698C98.4987 70.3641 98.5805 70.3767 98.6565 70.4067C98.7325 70.4368 98.8009 70.4835 98.8565 70.5435C98.9122 70.6035 98.9537 70.6752 98.9781 70.7533C99.0025 70.8315 99.0091 70.9141 98.9975 70.9952L97.4757 81.4726C97.4522 81.6092 97.3809 81.7328 97.2745 81.8213C97.1681 81.9099 97.0337 81.9574 96.8954 81.9554ZM84.6336 69.1191C86.024 72.5531 89.9653 80.5072 96.4685 80.8473L97.8151 71.5328C95.7131 71.6205 89.2318 71.6864 84.6555 69.1191H84.6336Z" fill="#231F20"/>
<path d="M51.4719 73.4088C31.2509 70.8854 12.2669 156.91 23.3026 165.084C40.5129 177.843 93.0417 160.421 93.0417 160.421L87.7867 137.722C87.7867 137.722 49.8735 139.532 49.1838 131.731C48.4941 123.931 70.3683 87.3641 67.3028 82.0321C64.2374 76.7001 51.4719 73.4088 51.4719 73.4088Z" fill="#34A853"/>
<path d="M122.076 138.358C121.955 138.361 121.838 138.319 121.746 138.24C121.655 138.161 121.597 138.05 121.583 137.93C118.978 119.586 113.263 88.8672 111.413 87.0679C111.323 86.9736 111.272 86.8479 111.273 86.7173C111.273 86.5868 111.324 86.4615 111.415 86.3678C111.506 86.274 111.629 86.2192 111.759 86.2147C111.89 86.2102 112.016 86.2565 112.113 86.3438C114.489 88.6587 120.598 123.898 122.569 137.787C122.587 137.92 122.553 138.054 122.473 138.161C122.393 138.268 122.274 138.339 122.142 138.358H122.076Z" fill="#231F20"/>
<path d="M102.731 181.76L67.8283 171.963L131.929 159.883L166.624 174.453L102.731 181.76Z" fill="white"/>
<path d="M102.731 182.341C102.684 182.352 102.635 182.352 102.588 182.341L67.686 172.467C67.5409 172.467 67.4016 172.41 67.299 172.307C67.1963 172.204 67.1386 172.064 67.1386 171.919C67.1386 171.773 67.1963 171.634 67.299 171.531C67.4016 171.428 67.5409 171.37 67.686 171.37L131.787 159.302C131.887 159.269 131.994 159.269 132.094 159.302L166.788 173.872C166.899 173.919 166.991 174.001 167.051 174.106C167.11 174.212 167.133 174.333 167.116 174.453C167.1 174.574 167.044 174.687 166.957 174.772C166.869 174.857 166.756 174.911 166.635 174.925L102.796 182.341H102.731ZM70.2369 172.105L102.775 181.244L164.478 174.19L131.864 160.498L70.2369 172.105Z" fill="#231F20"/>
<path d="M82.1375 145.566C89.8011 146.411 96.9064 146.959 104.034 149.955C108.106 151.669 111.953 153.88 115.485 156.537C117.285 157.817 118.967 159.257 120.51 160.838C121.737 162.176 121.343 163.482 119.284 162.835C116.891 162.083 114.625 160.974 112.562 159.543C117.493 163.575 121.864 168.25 125.558 173.444C125.974 174.036 126.379 174.881 125.886 175.408C125.393 175.934 124.298 175.408 123.696 174.859L112.869 164.568C115.735 167.046 118.173 169.982 120.083 173.257C120.357 173.729 120.62 174.354 120.335 174.782C119.854 175.583 118.627 174.98 117.971 174.31C114.727 171.029 111.778 167.468 109.157 163.668L115.004 172.445C114.948 172.607 114.861 172.757 114.748 172.885C114.635 173.013 114.497 173.117 114.344 173.191C114.19 173.266 114.023 173.309 113.853 173.318C113.682 173.328 113.511 173.303 113.35 173.246C112.707 172.98 112.149 172.539 111.741 171.974L104.658 163.822L108.84 169.593C109.497 170.493 110.154 171.787 109.398 172.632C108.643 173.477 106.935 172.632 105.971 171.776C102.096 168.232 97.8406 165.131 93.2826 162.527C91.6295 161.551 90.2172 160.224 88.3888 159.664C85.7613 158.852 82.4769 158.962 79.7399 158.655" fill="white"/>
<path d="M125.36 176.154C124.629 176.071 123.948 175.737 123.434 175.21L119.93 171.919C120.16 172.281 120.39 172.654 120.598 173.016C120.82 173.302 120.96 173.642 121.004 174.001C121.049 174.361 120.995 174.725 120.85 175.056C120.752 175.225 120.615 175.369 120.452 175.476C120.288 175.582 120.102 175.649 119.908 175.671C119.494 175.665 119.086 175.574 118.709 175.402C118.332 175.23 117.995 174.982 117.719 174.672C116.996 173.948 116.295 173.213 115.606 172.478C115.611 172.518 115.611 172.559 115.606 172.599C115.564 172.802 115.48 172.994 115.36 173.162C115.239 173.33 115.084 173.471 114.905 173.575C114.669 173.717 114.406 173.808 114.133 173.844C113.86 173.88 113.582 173.86 113.318 173.784C112.581 173.494 111.943 172.999 111.478 172.357L110.186 170.876C110.348 171.234 110.404 171.63 110.35 172.018C110.296 172.406 110.133 172.771 109.88 173.071C109.722 173.247 109.53 173.39 109.316 173.49C109.101 173.59 108.868 173.645 108.632 173.652C107.488 173.527 106.43 172.989 105.654 172.138C101.817 168.613 97.593 165.537 93.0636 162.966C92.5053 162.637 91.9688 162.264 91.4433 161.869C90.4869 161.122 89.4192 160.529 88.2793 160.114C86.3704 159.63 84.4127 159.365 82.444 159.324C81.5025 159.269 80.5828 159.214 79.718 159.126C79.586 159.11 79.466 159.042 79.384 158.937C79.3019 158.832 79.2646 158.699 79.28 158.567C79.2868 158.502 79.3064 158.439 79.3377 158.381C79.369 158.324 79.4113 158.274 79.4622 158.233C79.5132 158.192 79.5717 158.162 79.6344 158.144C79.697 158.126 79.7627 158.12 79.8274 158.128C80.6814 158.216 81.5791 158.271 82.4988 158.325C84.549 158.365 86.5878 158.641 88.5749 159.148C89.809 159.6 90.968 160.237 92.0126 161.035C92.5162 161.397 93.0308 161.748 93.5673 162.067C98.1587 164.681 102.444 167.802 106.344 171.37C106.936 171.973 107.701 172.376 108.533 172.522C108.635 172.518 108.735 172.494 108.827 172.451C108.919 172.407 109.002 172.346 109.07 172.27C109.661 171.622 108.851 170.361 108.479 169.845L104.296 164.085C104.257 164.035 104.228 163.977 104.212 163.916C104.195 163.854 104.19 163.79 104.199 163.727C104.207 163.664 104.227 163.603 104.259 163.547C104.291 163.492 104.333 163.444 104.384 163.405C104.476 163.315 104.6 163.264 104.729 163.264C104.858 163.264 104.982 163.315 105.074 163.405L112.168 171.557C112.514 172.042 112.988 172.422 113.537 172.654C113.666 172.69 113.802 172.7 113.935 172.683C114.069 172.666 114.197 172.623 114.314 172.555C114.384 172.519 114.444 172.466 114.489 172.401L108.785 163.811C108.711 163.702 108.683 163.568 108.708 163.438C108.733 163.308 108.808 163.194 108.916 163.12C109.025 163.046 109.159 163.018 109.289 163.042C109.418 163.067 109.532 163.142 109.606 163.251C112.215 167.024 115.146 170.562 118.365 173.828C118.721 174.22 119.207 174.469 119.733 174.53C119.776 174.529 119.819 174.516 119.855 174.493C119.892 174.469 119.921 174.437 119.941 174.398C120.062 174.212 119.941 173.861 119.689 173.378C118.371 171.118 116.795 169.019 114.993 167.124L112.551 164.798C112.472 164.704 112.43 164.585 112.433 164.462C112.436 164.339 112.484 164.221 112.567 164.131C112.65 164.04 112.764 163.984 112.886 163.971C113.008 163.959 113.13 163.992 113.23 164.063C114.095 164.809 114.916 165.588 115.704 166.411L124.069 174.365C124.394 174.735 124.84 174.977 125.328 175.045C125.372 175.047 125.416 175.038 125.456 175.019C125.496 175 125.531 174.971 125.557 174.936C125.809 174.672 125.557 174.08 125.196 173.597C121.53 168.442 117.193 163.8 112.299 159.796C112.21 159.71 112.155 159.595 112.144 159.471C112.134 159.348 112.17 159.225 112.244 159.126C112.318 159.027 112.427 158.959 112.548 158.935C112.669 158.911 112.795 158.932 112.902 158.995C114.914 160.399 117.13 161.486 119.47 162.22C120.237 162.462 120.642 162.363 120.718 162.22C120.795 162.078 120.718 161.595 120.182 161.024C118.663 159.462 117.003 158.045 115.223 156.789C111.724 154.16 107.915 151.974 103.88 150.284C97.4538 147.596 91.0273 146.904 84.1738 146.169L82.0389 145.928C81.9741 145.921 81.9112 145.902 81.854 145.87C81.7968 145.839 81.7463 145.796 81.7056 145.745C81.6649 145.694 81.6347 145.636 81.6167 145.573C81.5987 145.51 81.5934 145.444 81.601 145.379C81.6078 145.314 81.6274 145.251 81.6587 145.194C81.69 145.137 81.7323 145.086 81.7832 145.045C81.8341 145.005 81.8927 144.974 81.9553 144.956C82.018 144.938 82.0837 144.933 82.1484 144.941L84.338 145.171C91.2244 145.917 97.7166 146.619 104.274 149.362C108.385 151.068 112.269 153.28 115.836 155.945C117.666 157.249 119.373 158.718 120.937 160.333C121.726 161.189 121.967 162.121 121.572 162.747C121.342 163.098 120.729 163.624 119.186 163.142C118.295 162.869 117.421 162.543 116.569 162.165C120.07 165.447 123.235 169.071 126.017 172.983C126.773 174.08 126.871 174.969 126.313 175.583C126.193 175.715 126.048 175.821 125.886 175.895C125.724 175.968 125.549 176.008 125.371 176.011L125.36 176.154Z" fill="#231F20"/>
<path d="M166.624 174.453L182.597 131.611L117.357 132.905L102.731 181.76L166.624 174.453Z" fill="white"/>
<path d="M102.731 182.341C102.651 182.342 102.572 182.325 102.5 182.291C102.428 182.257 102.365 182.206 102.315 182.144C102.257 182.075 102.217 181.993 102.198 181.905C102.179 181.817 102.182 181.726 102.205 181.639L116.832 132.785C116.867 132.674 116.936 132.577 117.028 132.507C117.12 132.436 117.231 132.395 117.346 132.39L182.586 131.095C182.675 131.094 182.764 131.114 182.844 131.154C182.924 131.194 182.993 131.253 183.046 131.326C183.093 131.399 183.124 131.483 183.135 131.57C183.147 131.658 183.139 131.747 183.111 131.83L167.138 174.618C167.102 174.715 167.041 174.8 166.959 174.864C166.878 174.928 166.781 174.968 166.678 174.98L102.796 182.341H102.731ZM117.773 133.476L103.541 181.156L166.273 173.981L181.841 132.203L117.773 133.476Z" fill="#231F20"/>
<path d="M163.142 174.848C163.142 174.848 180.845 189.253 174.627 202.462C168.408 215.672 55.2928 230.768 55.2928 230.768L50.2019 213.499C50.2019 213.499 138.936 168.079 163.142 174.848Z" fill="#231F20"/>
<path d="M55.2929 231.316C55.1748 231.315 55.0604 231.276 54.966 231.205C54.8716 231.134 54.802 231.034 54.7673 230.921L49.6765 213.653C49.6376 213.532 49.6439 213.4 49.6942 213.283C49.7445 213.166 49.8355 213.071 49.9502 213.017C50.1692 212.896 72.4266 201.541 97.3663 191.14C130.922 177.152 153.092 171.491 163.252 174.321C163.328 174.342 163.399 174.38 163.46 174.431C166.549 177.061 169.293 180.073 171.627 183.394C176.51 190.438 177.692 197.108 175.043 202.704C168.715 216.023 59.9896 230.691 55.3695 231.305L55.2929 231.316ZM50.8479 213.763L55.687 230.132C63.5915 229.034 168.178 214.574 174.057 202.21C179.838 190.01 164.204 176.439 162.847 175.331C139.834 169.176 57.4825 210.471 50.9136 213.785L50.8479 213.763Z" fill="#231F20"/>
<path d="M44.3448 168.232C44.3448 168.232 132.181 203.823 153.957 213.214L141.301 232.808C141.301 232.808 60.1976 231.218 36.9439 210.8C13.6902 190.383 15.2339 156.395 44.3448 168.232Z" fill="#231F20"/>
<path d="M141.301 233.379C141.104 233.379 120.729 232.951 97.7823 230.033C66.9087 226.094 46.3264 219.775 36.5935 211.228C24.4193 200.542 15.8907 181.782 22.591 170.887C24.7806 167.267 30.6268 162.056 44.5747 167.717C45.4505 168.079 132.663 203.428 154.198 212.698C154.271 212.728 154.337 212.774 154.39 212.833C154.443 212.892 154.482 212.962 154.504 213.038C154.526 213.116 154.532 213.196 154.52 213.276C154.509 213.355 154.481 213.431 154.439 213.499L141.783 233.127C141.731 233.207 141.66 233.273 141.575 233.317C141.491 233.361 141.396 233.383 141.301 233.379ZM33.5609 166.323C29.0613 166.323 25.6126 168.057 23.5106 171.458C18.3431 179.873 22.6457 197.536 37.3052 210.405C59.4312 229.835 135.542 232.139 141.005 232.271L153.158 213.455C130.67 203.801 45.0236 169.088 44.1477 168.737C40.804 167.265 37.2109 166.446 33.5609 166.323Z" fill="#231F20"/>
<path d="M166.963 157.349C167.057 157.855 167.276 158.33 167.598 158.731L169.306 161.288C169.244 161.024 169.124 160.776 168.956 160.564C168.788 160.351 168.575 160.178 168.333 160.056C168.091 159.935 167.825 159.868 167.554 159.861C167.283 159.854 167.014 159.907 166.766 160.015C166.281 160.278 165.878 160.67 165.602 161.149C165.325 161.627 165.186 162.172 165.2 162.725C165.249 163.828 165.51 164.912 165.967 165.917C167.182 169.077 169.93 173.696 173.904 171.304C176.597 169.681 177.342 163.954 177.725 161.101C178.48 155.484 176.762 148.265 169.558 149.362C169.766 152.128 170.795 154.769 172.514 156.943C171.342 155.802 166.602 154.036 166.963 157.349Z" fill="white"/>
<path d="M171.704 172.467C171.264 172.47 170.826 172.396 170.412 172.248C167.817 171.359 166.197 168.013 165.463 166.093C164.986 165.028 164.714 163.881 164.664 162.714C164.646 162.065 164.813 161.425 165.144 160.867C165.476 160.31 165.958 159.858 166.536 159.565C166.804 159.443 167.095 159.379 167.39 159.379L167.149 159.017C166.775 158.545 166.527 157.987 166.427 157.393C166.34 156.957 166.4 156.505 166.598 156.107C166.796 155.71 167.121 155.39 167.521 155.199C168.644 154.851 169.856 154.942 170.915 155.451C169.864 153.609 169.235 151.555 169.076 149.439C169.069 149.312 169.108 149.188 169.187 149.088C169.266 148.989 169.378 148.923 169.503 148.901C170.599 148.661 171.736 148.691 172.818 148.989C173.899 149.288 174.892 149.845 175.711 150.613C178.283 153.158 178.71 157.744 178.24 161.2C177.813 164.36 177.046 170.032 174.178 171.765C173.436 172.229 172.578 172.472 171.704 172.467ZM167.456 160.399C167.279 160.397 167.104 160.43 166.941 160.498C166.543 160.721 166.213 161.05 165.989 161.449C165.765 161.848 165.655 162.3 165.671 162.758C165.714 163.797 165.96 164.819 166.394 165.764C166.941 167.168 168.452 170.536 170.773 171.326C171.252 171.48 171.76 171.521 172.257 171.447C172.754 171.373 173.228 171.185 173.641 170.898C176.105 169.417 176.849 163.844 177.211 161.167C177.659 157.876 177.298 153.597 175.021 151.293C174.375 150.683 173.597 150.231 172.749 149.97C171.9 149.71 171.003 149.648 170.127 149.79C170.409 152.287 171.384 154.655 172.941 156.625C173.021 156.724 173.06 156.849 173.05 156.976C173.039 157.103 172.981 157.221 172.886 157.305C172.793 157.393 172.669 157.442 172.541 157.442C172.413 157.442 172.29 157.393 172.196 157.305C171.463 156.581 169.043 155.55 167.959 156.076C167.719 156.186 167.412 156.438 167.489 157.294C167.584 157.717 167.771 158.114 168.036 158.457L168.956 159.818C169.197 159.974 169.4 160.182 169.552 160.427C169.703 160.672 169.799 160.947 169.832 161.233C169.843 161.345 169.817 161.457 169.758 161.553C169.698 161.648 169.609 161.721 169.503 161.759C169.398 161.797 169.284 161.798 169.179 161.762C169.073 161.726 168.983 161.656 168.923 161.562L168.244 160.553C167.999 160.434 167.727 160.381 167.456 160.399Z" fill="#231F20"/>
<path d="M142.297 209.155C142.228 209.165 142.158 209.165 142.089 209.155C140.173 208.409 94.892 190.844 84.6884 184.579C84.5614 184.5 84.4708 184.374 84.4359 184.228C84.4011 184.082 84.4249 183.929 84.5022 183.8C84.5404 183.736 84.591 183.681 84.651 183.636C84.711 183.592 84.7792 183.56 84.8517 183.543C84.9241 183.526 84.9993 183.523 85.0728 183.535C85.1462 183.547 85.2166 183.574 85.2795 183.614C95.3956 189.824 142.023 207.915 142.494 208.091C142.635 208.145 142.748 208.252 142.81 208.39C142.872 208.528 142.876 208.685 142.823 208.826C142.777 208.926 142.703 209.011 142.61 209.07C142.516 209.129 142.407 209.158 142.297 209.155Z" fill="white"/>
<path d="M89.4836 137.513C99.4663 137.513 107.559 129.836 107.559 120.365C107.559 110.895 99.4663 103.217 89.4836 103.217C79.5009 103.217 71.4084 110.895 71.4084 120.365C71.4084 129.836 79.5009 137.513 89.4836 137.513Z" fill="#231F20"/>
<path d="M89.4836 138.051C79.2143 138.051 70.8719 130.119 70.8719 120.365C70.8719 110.612 79.2253 102.669 89.4836 102.669C99.7419 102.669 108.095 110.612 108.095 120.365C108.095 130.119 99.7529 138.051 89.4836 138.051ZM89.4836 103.766C79.8165 103.766 71.9667 111.215 71.9667 120.365C71.9667 129.515 79.8274 136.954 89.4836 136.954C99.1398 136.954 107.001 129.515 107.001 120.365C107.001 111.215 99.1507 103.766 89.4836 103.766Z" fill="#231F20"/>
<path d="M79.9479 125.939L75.5687 123.371V119.981L79.9479 117.414C81.4076 116.573 82.8674 115.717 84.3271 114.847V118.95C83.5498 119.433 82.7725 119.905 81.9952 120.354C81.2179 120.804 80.4515 121.265 79.6632 121.759L81.9952 123.053L84.3271 124.359V128.506L79.9479 125.939Z" fill="white"/>
<path d="M85.5642 129.592L90.7207 109.932L93.414 111.149L88.2355 130.777L85.5642 129.592Z" fill="white"/>
<path d="M99.0851 117.414L103.464 119.981V123.371L99.0851 125.939L94.7058 128.506V124.359L97.0378 123.053L99.3697 121.759C98.5924 121.265 97.8151 120.793 97.0378 120.354C96.2605 119.915 95.4941 119.433 94.7058 118.95V114.847L99.0851 117.414Z" fill="white"/>
<path d="M52.0084 168.079C51.8632 168.088 51.7205 168.038 51.6117 167.941C51.5029 167.845 51.4368 167.709 51.4281 167.563C51.4194 167.418 51.4687 167.275 51.5652 167.166C51.6617 167.057 51.7975 166.99 51.9427 166.982L78.2181 163.789L82.3893 142.714L48.724 139.861C48.6435 139.856 48.5653 139.832 48.4952 139.792C48.425 139.752 48.3648 139.697 48.3189 139.631C48.2697 139.566 48.2363 139.491 48.2211 139.411C48.2059 139.331 48.2094 139.248 48.2313 139.17L62.0697 87.5396C62.1074 87.3942 62.2013 87.2697 62.3306 87.1935C62.46 87.1174 62.6142 87.0959 62.7594 87.1337C62.9046 87.1715 63.0288 87.2656 63.1048 87.3952C63.1807 87.5249 63.2022 87.6794 63.1645 87.8249L49.4903 138.83L83.068 141.616C83.145 141.625 83.2196 141.649 83.2872 141.686C83.3549 141.724 83.4144 141.775 83.4622 141.836C83.508 141.898 83.5404 141.969 83.5574 142.045C83.5743 142.12 83.5755 142.199 83.5607 142.275L79.1815 164.338C79.1577 164.451 79.0997 164.553 79.0155 164.632C78.9312 164.71 78.8247 164.761 78.7107 164.777L52.0084 168.013V168.079Z" fill="#231F20"/>
</svg>
