<svg width="197" height="244" viewBox="0 0 197 244" fill="none" xmlns="http://www.w3.org/2000/svg">
<g clip-path="url(#clip0)">
<path d="M34.9533 242.629L212.963 175.711L214.885 68.1035L177.322 41.2872L97.3591 165.583L30.1641 215.373L34.9533 242.629Z" fill="white"/>
<path d="M34.9533 243.128C34.8708 243.125 34.7903 243.101 34.7192 243.06C34.6561 243.024 34.6016 242.975 34.5595 242.915C34.5174 242.856 34.4886 242.789 34.4753 242.717L29.6861 215.461C29.6707 215.371 29.6808 215.278 29.7152 215.194C29.7497 215.109 29.8072 215.036 29.8812 214.982L96.9982 165.24L176.912 41.0232C176.985 40.9138 177.097 40.8368 177.225 40.8082C177.358 40.7865 177.494 40.8181 177.605 40.8962L215.138 67.7027C215.203 67.7497 215.255 67.8115 215.291 67.8829C215.326 67.9544 215.344 68.0334 215.343 68.1133L213.392 175.721C213.392 175.819 213.362 175.914 213.307 175.995C213.251 176.075 213.172 176.136 213.08 176.17L35.0703 243.089C35.0328 243.106 34.9936 243.119 34.9533 243.128ZM30.7005 215.588L35.3337 241.984L212.485 175.378L214.436 68.3479L177.507 41.952L97.8175 165.807C97.7865 165.857 97.7469 165.9 97.7005 165.935L30.7005 215.588Z" fill="#231F20"/>
<path d="M18.9275 212.049C18.9275 212.049 124.27 153.108 141.076 51.6598L117.374 44.4351L185.496 1.3609L214.885 68.1035L193.289 63.4695C193.289 63.4695 156.751 163.187 35.1873 223.077L18.9275 212.049Z" fill="white"/>
<path d="M35.1874 223.566C35.0904 223.57 34.9945 223.542 34.9143 223.487L18.6545 212.46C18.5833 212.414 18.5258 212.35 18.488 212.274C18.4503 212.199 18.4336 212.114 18.4399 212.03C18.4408 211.947 18.464 211.866 18.5069 211.796C18.5498 211.725 18.6109 211.667 18.6837 211.629C18.9471 211.482 45.3218 196.593 73.3937 169.522C99.2124 144.632 131.781 104.021 140.53 52.002L117.238 44.9044C117.148 44.8784 117.068 44.8265 117.007 44.7553C116.946 44.684 116.908 44.5965 116.896 44.5036C116.881 44.4104 116.895 44.3148 116.935 44.2293C116.975 44.1439 117.04 44.0725 117.121 44.0245L185.242 0.950326C185.301 0.911497 185.367 0.886856 185.436 0.878369C185.506 0.869881 185.576 0.877783 185.642 0.901444C185.709 0.920865 185.77 0.95453 185.822 1.00011C185.875 1.04568 185.916 1.10208 185.945 1.1654L215.333 67.8982C215.369 67.9812 215.381 68.0723 215.369 68.1618C215.357 68.2514 215.321 68.3359 215.265 68.4065C215.209 68.479 215.133 68.5334 215.046 68.5629C214.959 68.5924 214.866 68.5958 214.777 68.5727L193.592 64.0365C192.304 67.3702 182.658 91.2048 160.214 121.101C137.984 150.713 98.2858 192.526 35.363 223.517C35.3087 223.545 35.2488 223.562 35.1874 223.566ZM19.8445 212.088L35.2265 222.52C97.7688 191.627 137.272 150.029 159.414 120.543C183.428 88.5554 192.704 63.5477 192.831 63.3424C192.872 63.2333 192.951 63.1422 193.052 63.085C193.154 63.0278 193.272 63.0082 193.387 63.0296L214.056 67.4582L185.281 2.12348L118.574 44.2787L141.262 51.1905C141.375 51.2246 141.473 51.299 141.535 51.3997C141.598 51.5005 141.622 51.6208 141.603 51.738C132.912 104.276 100.09 145.18 74.0862 170.246C57.6223 186.181 39.4281 200.216 19.8445 212.088Z" fill="#231F20"/>
<path d="M83.9767 58.9725C83.9767 58.9725 87.2247 62.5701 86.8151 63.4793C86.4054 64.3885 84.4936 64.1246 84.4936 64.1246" fill="white"/>
<path d="M85.0984 64.6524C84.8742 64.6657 84.6495 64.6657 84.4253 64.6524C84.2984 64.6308 84.1847 64.5606 84.1083 64.4567C84.0319 64.3527 83.9987 64.2232 84.0157 64.0952C84.035 63.9687 84.103 63.8549 84.2051 63.7781C84.3073 63.7013 84.4354 63.6678 84.5619 63.6846C85.1861 63.7628 86.1908 63.6846 86.3664 63.3131C86.5419 62.9416 85.1471 61.0352 83.6158 59.3439C83.5683 59.2973 83.5309 59.2414 83.5057 59.1797C83.4806 59.118 83.4684 59.0518 83.4697 58.9852C83.471 58.9186 83.4859 58.8529 83.5135 58.7923C83.541 58.7317 83.5807 58.6773 83.63 58.6326C83.6792 58.5879 83.7371 58.5537 83.8001 58.5323C83.863 58.5108 83.9296 58.5024 83.9959 58.5077C84.0622 58.513 84.1266 58.5318 84.1854 58.5629C84.2442 58.5941 84.2959 58.637 84.3375 58.6889C85.6348 60.1162 87.7319 62.6776 87.2637 63.7237C86.8736 64.5058 85.8201 64.6524 85.0984 64.6524Z" fill="#231F20"/>
<path d="M82.6014 53.7813C84.4839 54.8958 84.4449 57.8677 84.7277 59.7643C85.1179 62.4235 85.4398 65.0924 85.7031 67.7613C85.869 69.4624 81.5284 70.1663 80.6799 69.785L82.3868 76.3253L72.7304 74.2332L72.2524 68.6705C72.2524 68.6705 70.8674 63.0687 72.0379 59.3831C72.8371 57.0568 74.2655 54.999 76.1638 53.4391C76.1638 53.4391 80.7481 52.6961 82.6014 53.7813Z" fill="white"/>
<path d="M82.3966 76.8141H82.2893L72.6134 74.722C72.512 74.6979 72.4207 74.6424 72.3525 74.5635C72.2842 74.4845 72.2424 74.3861 72.233 74.2821L71.755 68.7194C71.755 68.563 70.3602 63.01 71.5599 59.2364C72.3839 56.8089 73.8749 54.6638 75.8614 53.048C75.9243 53.0008 75.9982 52.9705 76.076 52.96C76.2711 52.96 80.875 52.1975 82.8453 53.3609C84.6302 54.4069 84.8838 56.7728 85.0887 58.6694C85.1277 59.0344 85.1667 59.3602 85.2057 59.647C85.5959 62.2964 85.9275 64.9946 86.1811 67.6635C86.2044 67.9773 86.1378 68.2911 85.9892 68.5682C85.8406 68.8453 85.6162 69.0741 85.3423 69.2277C84.1331 69.9509 82.7512 70.3326 81.3432 70.3325L82.855 76.1982C82.877 76.2784 82.8777 76.3629 82.8572 76.4435C82.8367 76.5241 82.7956 76.5979 82.738 76.6577C82.6489 76.7525 82.5264 76.8087 82.3966 76.8141ZM73.1693 73.8812L81.7236 75.729L80.2215 69.961C80.2002 69.8717 80.204 69.7783 80.2323 69.691C80.2607 69.6037 80.3125 69.526 80.3821 69.4664C80.4516 69.4067 80.5363 69.3675 80.6267 69.353C80.7171 69.3385 80.8098 69.3493 80.8945 69.3842C82.252 69.5209 83.6178 69.2232 84.7961 68.5336C85.1082 68.3055 85.2545 68.0807 85.235 67.8591C84.9716 65.2097 84.64 62.5212 84.2596 59.8816C84.2108 59.559 84.1718 59.1973 84.1328 58.8258C83.9572 57.1443 83.7329 55.0522 82.3673 54.2505C81.031 53.4586 77.7049 53.7519 76.3784 53.9474C74.5951 55.4376 73.247 57.3833 72.4768 59.5786C71.3649 63.0883 72.6914 68.5532 72.7109 68.6021L73.1693 73.8812Z" fill="#231F20"/>
<path d="M85.3423 65.7963C85.1112 66.0094 84.837 66.1701 84.5383 66.2674C84.2397 66.3647 83.9236 66.3964 83.6116 66.3602C83.2996 66.324 82.9991 66.2208 82.7305 66.0577C82.4619 65.8946 82.2316 65.6754 82.0552 65.415" fill="white"/>
<path d="M83.7524 66.8814H83.4597C83.0926 66.8266 82.7412 66.6946 82.4285 66.4941C82.1159 66.2936 81.849 66.0291 81.6455 65.718C81.5714 65.6123 81.5412 65.4818 81.5612 65.3541C81.5812 65.2265 81.6499 65.1116 81.7528 65.0337C81.8046 64.9957 81.8634 64.9683 81.9258 64.9532C81.9883 64.938 82.053 64.9353 82.1165 64.9453C82.1799 64.9553 82.2408 64.9778 82.2955 65.0114C82.3503 65.045 82.3979 65.0891 82.4356 65.1412C82.5614 65.3427 82.728 65.5156 82.9245 65.6486C83.1211 65.7816 83.3433 65.8719 83.5768 65.9136C84.0948 65.9283 84.6006 65.7547 85.0009 65.4247C85.1021 65.3443 85.23 65.3056 85.3587 65.3165C85.4874 65.3274 85.6071 65.3871 85.6934 65.4834C85.776 65.5839 85.8161 65.7127 85.8051 65.8424C85.7942 65.9721 85.7331 66.0924 85.6349 66.1775C85.096 66.6033 84.4378 66.8495 83.7524 66.8814Z" fill="#231F20"/>
<path d="M82.4413 59.0799C82.6469 59.0366 82.7254 58.5816 82.6166 58.0639C82.5078 57.5461 82.253 57.1615 82.0474 57.2049C81.8418 57.2483 81.7633 57.7032 81.8721 58.221C81.9809 58.7387 82.2357 59.1233 82.4413 59.0799Z" fill="#231F20"/>
<path d="M71.1307 76.1591L71.4526 73.0991L83.3037 73.2164L85.4106 78.3685C80.5687 78.3325 75.758 77.5882 71.1307 76.1591Z" fill="white"/>
<path d="M85.1569 78.8672C80.3512 78.7842 75.5808 78.0273 70.9844 76.6186C70.8754 76.587 70.7812 76.5174 70.7186 76.4225C70.6561 76.3276 70.6293 76.2134 70.643 76.1005L70.9649 73.0503C70.9749 72.9284 71.0309 72.815 71.1216 72.7332C71.2122 72.6514 71.3307 72.6075 71.4526 72.6104L83.3037 72.7277C83.4 72.7282 83.494 72.7572 83.5738 72.8111C83.6536 72.8651 83.7158 72.9415 83.7524 73.0307L85.8592 78.1828C85.8976 78.2533 85.9178 78.3323 85.9178 78.4126C85.9178 78.4929 85.8976 78.5719 85.8592 78.6423C85.8162 78.7092 85.757 78.764 85.687 78.8017C85.617 78.8393 85.5387 78.8585 85.4593 78.8574L85.1569 78.8672ZM71.6575 75.8072C75.8898 77.0617 80.2671 77.7584 84.679 77.8798L82.972 73.6955L71.8916 73.5978L71.6575 75.8072Z" fill="#231F20"/>
<path d="M111.249 86.2091C112.186 84.849 113.027 83.4247 113.765 81.9467C113.825 80.8789 114.011 79.822 114.321 78.7987C114.789 77.8211 116.126 76.8435 116.838 78.1633C116.838 78.1633 117.072 75.8756 118.642 77.0586C119.335 77.5333 119.865 78.2099 120.162 78.9967C120.459 79.7835 120.507 80.6426 120.3 81.4579C119.979 83.2078 114.087 92.2704 114.087 92.2704" fill="white"/>
<path d="M114.087 92.7592C113.99 92.7621 113.895 92.7348 113.814 92.681C113.707 92.6093 113.633 92.4982 113.607 92.3719C113.582 92.2456 113.607 92.1142 113.678 92.0064C116.028 88.399 119.598 82.5821 119.813 81.3796C120.004 80.6562 119.965 79.8912 119.703 79.1906C119.441 78.49 118.968 77.8884 118.35 77.4691C118.096 77.2736 117.872 77.1954 117.755 77.2443C117.638 77.2932 117.355 77.8797 117.326 78.2219C117.313 78.3268 117.267 78.425 117.196 78.5024C117.124 78.5797 117.029 78.6321 116.926 78.6521C116.824 78.6718 116.718 78.6576 116.625 78.6118C116.531 78.5659 116.456 78.4908 116.409 78.3979C116.184 77.9873 115.979 77.997 115.901 77.997C115.531 77.997 115.014 78.4761 114.76 78.9747C114.52 79.6437 114.385 80.3463 114.36 81.057C114.342 81.3851 114.303 81.7116 114.243 82.0346C113.509 83.5787 112.644 85.0571 111.658 86.4535C111.587 86.5607 111.476 86.6352 111.35 86.6608C111.224 86.6864 111.093 86.6611 110.985 86.5904C110.931 86.5558 110.885 86.5107 110.849 86.4577C110.813 86.4047 110.787 86.345 110.775 86.2821C110.762 86.2192 110.762 86.1543 110.775 86.0914C110.787 86.0285 110.813 85.9688 110.849 85.9158C111.765 84.6127 112.583 83.2436 113.297 81.8196C113.346 81.5415 113.379 81.2607 113.395 80.9788C113.419 80.156 113.58 79.3431 113.873 78.5739C114.044 78.1595 114.319 77.7963 114.671 77.519C115.023 77.2417 115.44 77.0596 115.882 76.9901C116.131 76.9935 116.375 77.0572 116.594 77.1758C116.73 76.7973 117.006 76.4857 117.365 76.3058C117.632 76.2114 117.921 76.1934 118.198 76.2538C118.475 76.3142 118.73 76.4507 118.935 76.6479C119.7 77.1795 120.286 77.9316 120.616 78.8045C120.945 79.6774 121.002 80.63 120.778 81.5361C120.457 83.3349 115.102 91.5958 114.497 92.5344C114.452 92.602 114.391 92.6577 114.319 92.6969C114.248 92.736 114.168 92.7574 114.087 92.7592Z" fill="#231F20"/>
<path d="M38.8159 104.716C38.8159 104.716 37.5187 106.896 36.7676 108.538C36.1899 110.12 35.7812 111.758 35.5483 113.426C35.1679 112.879 34.4949 112.693 34.095 112.204C33.9797 112.916 33.7456 113.604 33.4025 114.238C33.2271 114.552 32.9766 114.817 32.6736 115.01C32.3705 115.203 32.0243 115.317 31.6663 115.342C31.2861 115.327 30.9137 115.23 30.5738 115.059C29.3058 114.521 27.2185 113.553 27.0721 111.95C27.071 111.33 27.247 110.723 27.5794 110.2C28.7791 107.971 33.7536 102.32 34.5729 101.401" fill="white"/>
<path d="M31.6662 115.802C31.2196 115.783 30.7816 115.673 30.3787 115.479C29.296 115.02 26.7599 113.944 26.5844 111.96C26.5726 111.248 26.7693 110.547 27.1501 109.946C28.4864 107.453 34.1534 101.147 34.212 101.05C34.3031 100.96 34.4257 100.91 34.5533 100.91C34.681 100.91 34.8036 100.96 34.8947 101.05C34.9404 101.095 34.9767 101.149 35.0015 101.209C35.0262 101.268 35.039 101.332 35.039 101.397C35.039 101.461 35.0262 101.525 35.0015 101.585C34.9767 101.644 34.9404 101.698 34.8947 101.744C33.4414 103.366 29.0424 108.44 27.9694 110.444C27.6884 110.886 27.5332 111.397 27.5207 111.921C27.628 113.153 29.2862 114.013 30.72 114.619C31.0033 114.76 31.3116 114.843 31.6272 114.863C31.902 114.837 32.1663 114.744 32.3973 114.592C32.6284 114.44 32.8193 114.235 32.9537 113.993C33.2586 113.404 33.4692 112.771 33.578 112.116C33.5969 112.027 33.6404 111.945 33.7036 111.879C33.7668 111.813 33.8471 111.766 33.9354 111.744C34.0238 111.722 34.1166 111.724 34.2034 111.752C34.2902 111.78 34.3675 111.832 34.4265 111.901C34.5976 112.079 34.7911 112.233 35.002 112.361L35.1776 112.468C35.4035 111.072 35.7729 109.702 36.2798 108.382C37.0309 106.72 38.3086 104.589 38.3574 104.471C38.4245 104.362 38.5317 104.284 38.6559 104.253C38.7801 104.222 38.9113 104.242 39.0213 104.307C39.1313 104.373 39.2112 104.479 39.244 104.603C39.2767 104.727 39.2595 104.858 39.1962 104.97C39.1962 104.97 37.899 107.15 37.1674 108.753C36.6151 110.279 36.2229 111.858 35.9969 113.465C35.9754 113.557 35.9292 113.64 35.8634 113.707C35.7975 113.773 35.7146 113.82 35.6237 113.842C35.5329 113.865 35.4377 113.861 35.3486 113.833C35.2596 113.804 35.1801 113.751 35.1191 113.68C34.9346 113.464 34.7133 113.282 34.4656 113.143L34.3485 113.065C34.2307 113.559 34.0401 114.034 33.7828 114.472C33.5629 114.858 33.2507 115.182 32.8743 115.416C32.4979 115.65 32.0692 115.786 31.6272 115.812L31.6662 115.802Z" fill="#231F20"/>
<path d="M95.7302 158.309C95.7302 158.309 94.7549 165.055 97.5445 166.052C100.334 167.049 114.624 155.63 113.639 153.098C112.653 150.566 107.786 149.696 103.397 153.098C100.968 155.015 98.4058 156.757 95.7302 158.309Z" fill="#231F20"/>
<path d="M97.9151 166.59C97.7325 166.592 97.5509 166.562 97.3786 166.502C94.3061 165.416 95.1449 158.974 95.2522 158.241C95.2614 158.165 95.2883 158.093 95.3307 158.03C95.3731 157.967 95.4298 157.915 95.4961 157.879C98.1432 156.334 100.682 154.609 103.094 152.717C105.689 150.703 108.732 149.921 111.239 150.615C111.862 150.746 112.445 151.024 112.941 151.425C113.436 151.826 113.829 152.339 114.087 152.922C114.224 153.255 114.624 154.281 111.522 157.478C108.274 160.841 100.871 166.59 97.9151 166.59ZM96.1399 158.612C95.9058 160.567 95.7692 164.918 97.6615 165.592C99.2026 166.13 106.44 161.291 110.79 156.794C112.887 154.623 113.258 153.548 113.151 153.264C112.94 152.827 112.632 152.444 112.249 152.146C111.867 151.847 111.421 151.641 110.946 151.544C109.662 151.295 108.338 151.342 107.074 151.68C105.81 152.019 104.64 152.641 103.65 153.499C101.26 155.365 98.7511 157.072 96.1399 158.612Z" fill="#231F20"/>
<path d="M66.9268 127.758C66.9268 127.758 83.9767 132.343 96.7153 130.007L95.5644 158.28C95.5644 158.28 100.383 160.04 105.64 153.235C105.64 153.235 110.722 118.5 107.435 116.828C104.148 115.157 74.0276 117.131 74.0276 117.131L66.9268 127.758Z" fill="white"/>
<path d="M97.1153 158.993C96.5378 159.001 95.9624 158.922 95.4084 158.759C95.3084 158.72 95.2228 158.652 95.1634 158.562C95.104 158.473 95.0737 158.367 95.0768 158.26L96.2082 130.613C83.5281 132.695 66.9463 128.296 66.8195 128.247C66.7416 128.227 66.6698 128.187 66.6103 128.133C66.5509 128.078 66.5055 128.01 66.4781 127.934C66.4495 127.859 66.4389 127.778 66.4474 127.699C66.4559 127.619 66.4831 127.542 66.5269 127.475L73.6278 116.848C73.6712 116.785 73.7277 116.732 73.7934 116.694C73.859 116.655 73.9323 116.631 74.0082 116.623C77.11 116.428 104.372 114.668 107.679 116.379C110.985 118.09 106.996 147.418 106.138 153.284C106.126 153.369 106.092 153.45 106.04 153.519C102.461 158.172 99.0661 158.993 97.1153 158.993ZM96.1399 157.898C97.2812 158.123 101.017 158.368 105.221 153.01C107.679 136.146 109.122 118.197 107.269 117.259C104.694 115.958 82.8843 117.043 74.3691 117.601L67.8047 127.377C71.1015 128.188 85.6349 131.473 96.6862 129.45C96.7603 129.434 96.8371 129.437 96.91 129.458C96.9829 129.478 97.0499 129.515 97.1056 129.567C97.1628 129.616 97.2082 129.678 97.2386 129.747C97.269 129.817 97.2835 129.892 97.2812 129.968L96.1399 157.898Z" fill="#231F20"/>
<path d="M57.5044 122.831C57.5044 122.831 53.0176 150.488 52.1397 150.928C51.2619 151.368 26.7794 172.661 26.7794 172.661L34.0071 179.035C34.0071 179.035 61.3182 162.474 62.8593 157.527C64.4005 152.58 76.6319 122.831 76.6319 122.831H57.5044Z" fill="white"/>
<path d="M34.0169 179.533C33.8957 179.537 33.7774 179.495 33.6853 179.416L26.4478 173.042C26.3949 172.994 26.3528 172.935 26.3242 172.869C26.2957 172.803 26.2813 172.732 26.282 172.661C26.2812 172.588 26.2965 172.516 26.3269 172.45C26.3572 172.384 26.4019 172.326 26.4576 172.279C30.4372 168.819 49.9354 151.876 51.8179 150.556C52.5494 149.168 55.3878 132.832 57.0265 122.753C57.045 122.634 57.1052 122.525 57.1964 122.446C57.2875 122.367 57.4036 122.324 57.524 122.323H76.632C76.7146 122.325 76.7956 122.346 76.8685 122.385C76.9413 122.424 77.004 122.48 77.0514 122.547C77.0975 122.616 77.1261 122.694 77.1347 122.776C77.1432 122.858 77.1313 122.941 77.1002 123.017C76.9734 123.32 64.8979 152.913 63.3958 157.732C61.8157 162.747 35.4312 178.781 34.3095 179.465C34.2221 179.519 34.1193 179.543 34.0169 179.533ZM27.55 172.69L34.0657 178.429C41.8689 173.697 61.2012 161.261 62.3522 157.449C63.7665 152.952 73.9204 127.973 75.8029 123.359H57.9336C53.4566 150.85 52.6665 151.251 52.3641 151.397C51.5545 151.867 37.2455 164.233 27.55 172.67V172.69Z" fill="#231F20"/>
<path d="M47.4286 148.914C47.4286 148.914 62.9569 159.521 72.0281 157.713C98.1492 152.306 111.493 116.134 111.493 116.134C111.493 116.134 93.9355 113.778 84.6107 111.442L57.5044 120.143L47.4286 148.914Z" fill="#231F20"/>
<path d="M69.7164 158.377C60.5282 158.377 47.7407 149.716 47.1555 149.315C47.0659 149.257 46.9988 149.17 46.9651 149.069C46.9314 148.968 46.9332 148.858 46.9701 148.758L57.046 120.045C57.0704 119.973 57.1114 119.908 57.1657 119.856C57.22 119.803 57.2859 119.764 57.3581 119.742L84.4351 111.012C84.5212 110.987 84.6124 110.987 84.6985 111.012C93.8965 113.319 111.356 115.665 111.532 115.685C111.604 115.695 111.673 115.721 111.734 115.761C111.795 115.802 111.846 115.855 111.884 115.918C111.921 115.981 111.944 116.052 111.951 116.125C111.957 116.197 111.947 116.271 111.922 116.34C111.785 116.701 98.1785 152.844 72.0964 158.162C71.3114 158.308 70.5147 158.38 69.7164 158.377ZM48.0041 148.719C50.228 150.175 63.8542 158.837 71.9305 157.195C95.7107 152.306 108.996 121.169 110.82 116.555C107.65 116.124 92.9211 114.042 84.6302 111.979L57.8848 120.553L48.0041 148.719Z" fill="#231F20"/>
<path d="M91.6629 81.6436C91.6629 81.6436 90.2486 75.9343 73.2572 74.1159C69.1568 73.6286 65 74.1729 61.1622 75.6997C60.7233 78.3393 56.6949 111.168 54.9392 120.172C54.9392 120.172 77.8318 125.177 87.059 112.126C87.059 112.126 90.3461 84.4983 91.6629 81.6436Z" fill="#34A853"/>
<path d="M41.1623 123.133L14.6684 107.771C13.1763 106.905 11.2669 107.416 10.4037 108.912L1.56301 124.229C0.699791 125.724 1.20962 127.638 2.70175 128.503L29.1956 143.865C30.6877 144.73 32.5971 144.219 33.4604 142.724L42.301 127.407C43.1642 125.912 42.6544 123.998 41.1623 123.133Z" fill="white"/>
<path d="M30.7883 144.769C30.1583 144.771 29.539 144.606 28.9936 144.29L2.50185 128.922C2.09146 128.684 1.73198 128.367 1.44408 127.99C1.15617 127.612 0.945502 127.181 0.82417 126.722C0.579153 125.794 0.708827 124.807 1.18507 123.975L10.0222 108.665C10.2586 108.253 10.5744 107.892 10.9511 107.604C11.3279 107.315 11.7581 107.104 12.2168 106.984C12.6745 106.857 13.153 106.823 13.6239 106.885C14.0948 106.947 14.5484 107.104 14.9577 107.345L41.4592 122.704C42.2869 123.186 42.8903 123.978 43.1371 124.905C43.3839 125.832 43.254 126.819 42.776 127.651L33.9389 142.96C33.4591 143.793 32.67 144.401 31.7442 144.652C31.4317 144.73 31.1106 144.77 30.7883 144.769ZM29.4813 143.439C30.0883 143.786 30.8078 143.878 31.4822 143.695C32.1567 143.512 32.7314 143.068 33.0805 142.462L41.9176 127.152C42.0923 126.852 42.2055 126.521 42.2507 126.177C42.2959 125.833 42.2722 125.483 42.181 125.148C42.0948 124.811 41.9415 124.496 41.7303 124.22C41.5191 123.945 41.2543 123.715 40.952 123.545L14.4602 108.186C13.8708 107.842 13.1704 107.744 12.5094 107.912C12.1751 108.002 11.8617 108.157 11.5873 108.369C11.3128 108.58 11.0826 108.844 10.9098 109.144L2.07268 124.464C1.89996 124.765 1.78818 125.097 1.74373 125.441C1.69928 125.785 1.72305 126.135 1.81365 126.47C1.90426 126.805 2.05993 127.119 2.27175 127.394C2.48357 127.669 2.74738 127.899 3.04807 128.071L29.5398 143.43L29.4813 143.439Z" fill="#231F20"/>
<path d="M33.8121 119.351C33.7275 119.35 33.644 119.33 33.5683 119.292L21.7855 112.449C21.6741 112.381 21.5934 112.273 21.5605 112.147C21.5277 112.021 21.5455 111.887 21.6099 111.774L22.917 109.516C23.2963 108.859 23.9203 108.38 24.6518 108.184C25.3834 107.988 26.1626 108.09 26.8185 108.47L34.5144 112.937C34.8393 113.123 35.124 113.371 35.3517 113.669C35.5795 113.966 35.7458 114.305 35.841 114.668C35.9386 115.03 35.9638 115.409 35.9153 115.781C35.8668 116.154 35.7454 116.513 35.5581 116.838L34.2413 119.067C34.2032 119.15 34.1428 119.22 34.067 119.27C33.9912 119.32 33.9029 119.348 33.8121 119.351ZM22.7024 111.852L33.6366 118.197L34.6997 116.359C34.8237 116.146 34.9044 115.911 34.9371 115.667C34.9699 115.422 34.9541 115.174 34.8906 114.936C34.8271 114.698 34.7173 114.475 34.5673 114.279C34.4174 114.084 34.2303 113.92 34.017 113.798L26.3113 109.33C25.8818 109.082 25.3715 109.014 24.8924 109.143C24.4133 109.271 24.0046 109.584 23.7558 110.014L22.7024 111.852Z" fill="#231F20"/>
<path d="M72.0281 80.3043C72.0281 80.3043 54.7441 82.3084 50.3451 84.4005C45.9461 86.4926 31.2664 102.907 31.2664 102.907L37.9868 109.369C37.9868 109.369 49.3697 98.2926 52.53 96.8555C55.6903 95.4184 68.7411 98.273 68.7411 98.273L72.0281 80.3043Z" fill="#34A853"/>
<path d="M91.6628 81.6436L101.173 97.5594L111.493 84.381L116.906 90.364C116.906 90.364 107.806 108.274 103.416 108.186C93.877 108 81.1481 95.2815 81.1481 95.2815L91.6628 81.6436Z" fill="#34A853"/>
<path d="M34.0169 179.035C33.4902 172.504 30.5153 170.569 28.3791 171.282C26.243 171.996 24.7799 172.201 25.3847 178.546C25.9894 184.891 29.4131 194.022 32.866 193.21C36.3189 192.399 34.5339 185.546 34.0169 179.035Z" fill="#231F20"/>
<path d="M32.4173 193.738C31.7942 193.721 31.1928 193.506 30.7006 193.122C27.8719 191.089 25.4139 183.972 24.9067 178.595C24.3117 172.416 25.6188 171.673 27.9695 170.901L28.2231 170.823C28.7219 170.661 29.2516 170.618 29.7698 170.698C30.288 170.778 30.7804 170.978 31.2078 171.282C33.0318 172.485 34.2023 175.193 34.4949 178.996C34.6119 180.374 34.7778 181.782 34.9338 183.141C35.5678 188.391 36.1141 192.917 32.983 193.67C32.7974 193.713 32.6077 193.735 32.4173 193.738ZM29.2277 171.624C28.992 171.624 28.7579 171.664 28.5352 171.742L28.2719 171.83C26.4381 172.426 25.3457 172.807 25.8724 178.507C26.3503 183.561 28.6913 190.473 31.2663 192.33C31.469 192.502 31.7072 192.626 31.9636 192.694C32.2201 192.761 32.4883 192.771 32.7489 192.722C35.0411 192.174 34.5437 188.039 33.9779 183.248C33.8121 181.889 33.6463 180.472 33.5292 179.074C33.1586 174.401 31.5785 172.69 30.6811 172.094C30.254 171.796 29.748 171.632 29.2277 171.624Z" fill="#231F20"/>
<path d="M80.5335 48.854C75.9404 47.6715 71.0675 48.3456 66.9657 50.7311C65.6379 51.4935 64.4927 52.5379 63.6104 53.7911C61.1036 57.5745 62.3034 62.4431 60.6842 66.5002C59.065 70.5574 54.11 73.4022 50.862 76.0907C47.136 79.18 43.4782 82.5137 41.108 86.7273C37.1089 93.7564 38.611 100.541 43.1856 106.769C43.7949 107.651 44.5236 108.444 45.351 109.125C47.0234 110.282 48.9391 111.038 50.9498 111.334C54.666 112.087 60.0404 112.84 63.5031 110.767C65.9806 109.291 68.0582 105.566 68.3801 102.78C68.702 99.9937 67.7558 96.8457 68.7507 94.1181C70.2138 90.061 75.3639 88.2524 76.827 84.205C77.8804 81.2721 76.71 78.0362 75.1396 75.4064C73.9301 73.3436 72.428 70.968 73.3156 68.7487C73.8325 67.4289 75.0713 66.5686 76.0174 65.5226C77.1918 64.1945 77.9277 62.535 78.1243 60.7713C78.2999 59.1973 77.6171 57.7113 77.7926 56.196C79.0704 56.8999 80.6603 56.4111 82.0356 56.3524C83.7328 56.284 85.4398 56.1765 87.1369 56.0396C86.9109 54.2291 86.0542 52.5568 84.7179 51.3177C83.5326 50.1824 82.1 49.339 80.5335 48.854Z" fill="white"/>
<path d="M57.446 112.615C55.2014 112.573 52.9664 112.308 50.7743 111.823C48.671 111.521 46.667 110.731 44.9219 109.516C44.0594 108.809 43.2979 107.986 42.659 107.072C37.5089 100.033 36.8066 93.1112 40.5521 86.5415C42.9906 82.2497 46.7459 78.828 50.4524 75.7876C51.2035 75.1619 52.0423 74.5363 52.9201 73.8324C55.7195 71.7305 58.8993 69.3548 60.1283 66.3437C60.742 64.5833 61.0936 62.7419 61.172 60.8788C61.4061 58.3663 61.6499 55.7854 63.1228 53.5466C64.0467 52.2319 65.2449 51.1344 66.6342 50.3302C70.8509 47.8687 75.8637 47.1665 80.5921 48.375C82.2106 48.8678 83.6908 49.7351 84.9131 50.907C86.3421 52.2193 87.2526 54.0028 87.4784 55.932C87.4878 55.9965 87.483 56.0623 87.4645 56.1247C87.4459 56.1872 87.4141 56.2448 87.3711 56.2938C87.2871 56.3927 87.1684 56.4557 87.0395 56.4697C85.3521 56.6066 83.6256 56.7141 81.9187 56.7826C81.5773 56.7826 81.2164 56.8412 80.8555 56.8901C79.9503 57.0658 79.0198 57.0658 78.1146 56.8901C78.1441 57.3728 78.206 57.8529 78.3 58.3272C78.479 59.1419 78.5349 59.979 78.4658 60.8104C78.2614 62.6728 77.4842 64.4255 76.2419 65.8256C75.959 66.1384 75.6566 66.4415 75.3445 66.7348C74.6585 67.333 74.101 68.0648 73.7058 68.8856C72.9548 70.7822 74.213 72.9329 75.325 74.8295L75.5006 75.1228C77.5879 78.6814 78.1634 81.8 77.227 84.381C76.4565 86.5317 74.73 88.0568 73.0523 89.5428C71.3746 91.0288 69.8433 92.3779 69.1507 94.2941C68.6891 95.9067 68.5663 97.5978 68.7898 99.2604C68.8972 100.451 68.8972 101.648 68.7898 102.839C68.4777 105.586 66.4294 109.555 63.6885 111.197C61.7699 112.216 59.6154 112.706 57.446 112.615ZM76.2126 48.7465C73.0496 48.739 69.9406 49.5686 67.1999 51.1514C65.9314 51.8814 64.839 52.8828 64.0006 54.0843C62.6546 56.1178 62.4303 58.4739 62.1962 60.9277C62.105 62.8885 61.7271 64.8254 61.0745 66.6761C59.7479 69.9316 56.4608 72.3953 53.5541 74.5754C52.686 75.2304 51.857 75.8463 51.1157 76.4524C47.4872 79.4635 43.8099 82.807 41.4495 86.9619C37.899 93.2089 38.5916 99.7688 43.4978 106.514C44.0827 107.357 44.7819 108.114 45.5754 108.763C47.1882 109.874 49.0334 110.599 50.9694 110.884C53.0665 111.315 59.4358 112.605 63.1716 110.376C65.5905 108.939 67.5218 105.273 67.8145 102.751C67.9119 101.615 67.9119 100.474 67.8145 99.3386C67.5791 97.5437 67.7186 95.7193 68.2241 93.9812C68.9947 91.8305 70.7211 90.3054 72.3988 88.8292C74.0765 87.3529 75.6176 85.9843 76.3004 84.0681C77.1392 81.7707 76.5833 78.9258 74.652 75.6312L74.4764 75.3379C73.2571 73.2556 71.8623 70.8897 72.789 68.4945C73.2515 67.5262 73.9169 66.6693 74.7398 65.982C75.0372 65.7101 75.3204 65.4229 75.5883 65.1217C76.6832 63.8662 77.3645 62.3025 77.5391 60.6442C77.5894 59.9068 77.5336 59.166 77.3733 58.4445C77.2098 57.6673 77.154 56.8712 77.2075 56.0787C77.2165 55.9982 77.2452 55.9213 77.2912 55.8547C77.3372 55.7882 77.3989 55.7341 77.4709 55.6974C77.5412 55.6589 77.62 55.6387 77.7001 55.6387C77.7802 55.6387 77.859 55.6589 77.9293 55.6974C78.8359 56.0539 79.8293 56.1255 80.7775 55.9027C81.1676 55.9027 81.548 55.8147 81.9187 55.8049C83.4403 55.7365 84.9717 55.6387 86.4738 55.5312C86.1654 54.0308 85.3983 52.664 84.2791 51.6207C83.1749 50.5586 81.8391 49.7687 80.3775 49.3135C79.0237 48.9246 77.6209 48.7336 76.2126 48.7465Z" fill="#231F20"/>
<path d="M79.88 61.7294C79.832 61.055 79.5954 60.4079 79.1973 59.8621C78.9547 59.3991 78.6458 58.9742 78.2804 58.601C78.0934 58.4162 77.8677 58.2756 77.6197 58.1894C77.3716 58.1031 77.1075 58.0734 76.8466 58.1024C76.6215 58.1527 76.4092 58.249 76.2229 58.3852C76.0366 58.5215 75.8804 58.6948 75.7639 58.8943C75.5408 59.3004 75.4108 59.7513 75.3835 60.2141C75.2992 61.2216 75.4811 62.2336 75.9109 63.1483C76.3407 64.063 77.0031 64.8481 77.8317 65.4248L77.6952 65.2684" fill="white"/>
<path d="M77.8025 65.9038C77.7193 65.9053 77.6377 65.8815 77.5684 65.8354C76.6689 65.2076 75.949 64.3548 75.4801 63.3618C75.0113 62.3688 74.8098 61.2701 74.8958 60.1749C74.9271 59.6345 75.0841 59.1088 75.3543 58.64C75.5082 58.3866 75.7138 58.1686 75.9575 58.0002C76.2012 57.8317 76.4775 57.7166 76.7686 57.6624C77.1009 57.6179 77.4389 57.6502 77.7568 57.757C78.0747 57.8638 78.3639 58.0421 78.6023 58.2783C78.996 58.6814 79.325 59.1431 79.5777 59.647C80.0198 60.2742 80.2797 61.0119 80.3288 61.7782C80.3303 61.8432 80.3183 61.9078 80.2935 61.9679C80.2688 62.028 80.2319 62.0823 80.1851 62.1273C80.1383 62.1724 80.0827 62.2072 80.0218 62.2295C79.9609 62.2519 79.8961 62.2613 79.8313 62.2573C79.7673 62.256 79.7041 62.2421 79.6454 62.2163C79.5867 62.1906 79.5337 62.1535 79.4893 62.1072C79.4449 62.0609 79.4101 62.0063 79.3867 61.9465C79.3634 61.8867 79.3521 61.8229 79.3534 61.7587C79.3026 61.1741 79.0897 60.6154 78.7389 60.1456C78.5215 59.7247 78.242 59.3391 77.9098 59.0018C77.7824 58.8745 77.6297 58.7757 77.4617 58.7117C77.2936 58.6477 77.1139 58.6199 76.9344 58.6303C76.7775 58.6659 76.6297 58.7339 76.5005 58.8298C76.3712 58.9257 76.2632 59.0475 76.1833 59.1875C75.9978 59.5317 75.8881 59.9117 75.8615 60.302C75.7987 61.1568 75.9434 62.0141 76.2831 62.8006C76.6228 63.5872 77.1475 64.2796 77.8123 64.8186C77.9226 64.8404 78.0223 64.899 78.0951 64.9848L78.1927 65.1022C78.2687 65.1962 78.3102 65.3135 78.3102 65.4345C78.3102 65.5556 78.2687 65.6729 78.1927 65.7669C78.1405 65.8154 78.079 65.8526 78.0118 65.8762C77.9447 65.8997 77.8734 65.9091 77.8025 65.9038Z" fill="#231F20"/>
<path d="M101.495 108.655H101.407C91.7311 106.857 81.2164 94.5385 80.7775 93.991C80.7356 93.9426 80.7039 93.8863 80.6842 93.8254C80.6644 93.7645 80.6571 93.7002 80.6625 93.6364C80.668 93.5726 80.6861 93.5106 80.7159 93.4539C80.7457 93.3973 80.7865 93.3472 80.836 93.3067C80.8843 93.2647 80.9405 93.2329 81.0012 93.2131C81.062 93.1934 81.1261 93.186 81.1897 93.1914C81.2534 93.1969 81.3153 93.2151 81.3718 93.245C81.4283 93.2748 81.4783 93.3158 81.5188 93.3653C81.626 93.4826 92.2481 105.938 101.583 107.668C101.646 107.68 101.707 107.704 101.761 107.739C101.815 107.775 101.862 107.821 101.898 107.874C101.935 107.928 101.96 107.989 101.973 108.052C101.985 108.116 101.986 108.181 101.973 108.245C101.956 108.36 101.899 108.465 101.811 108.54C101.723 108.616 101.611 108.657 101.495 108.655Z" fill="#231F20"/>
<path d="M80.6897 69.785L76.1541 68.3284C76.6141 69.5187 77.4963 70.4969 78.6316 71.0755C80.3775 72.0531 81.2261 71.8576 81.2261 71.8576L80.6897 69.785Z" fill="#231F20"/>
<path d="M80.9724 72.3659C80.0506 72.3108 79.1593 72.0141 78.3877 71.5056C77.1279 70.868 76.1532 69.7794 75.6565 68.4554C75.6333 68.3707 75.6337 68.2812 75.6578 68.1967C75.6819 68.1122 75.7287 68.036 75.7931 67.9764C75.8567 67.9153 75.9354 67.8722 76.0211 67.8516C76.1068 67.831 76.1964 67.8336 76.2808 67.8591L80.8066 69.3157C80.8847 69.341 80.9551 69.3856 81.0113 69.4455C81.0676 69.5053 81.1079 69.5783 81.1285 69.6579L81.6747 71.7305C81.7076 71.8549 81.6902 71.9873 81.6263 72.099C81.5624 72.2106 81.4571 72.2925 81.3333 72.3268C81.2149 72.3535 81.0938 72.3666 80.9724 72.3659ZM77.1489 69.2082C77.6218 69.8183 78.2123 70.3269 78.8851 70.7039C79.4102 71.0317 79.9876 71.2665 80.592 71.3981L80.2897 70.1858L77.1489 69.2082Z" fill="#231F20"/>
<path d="M39.7522 126.302H39.7034L21.0344 124.757C20.9627 124.752 20.893 124.731 20.8305 124.696C20.7681 124.66 20.7144 124.611 20.6735 124.552L11.4365 111.246C11.3706 111.14 11.348 111.012 11.3733 110.889C11.3986 110.767 11.4699 110.659 11.5725 110.587C11.6751 110.516 11.8012 110.486 11.9247 110.505C12.0482 110.524 12.1598 110.59 12.2363 110.689L21.3367 123.809L39.7912 125.324C39.9206 125.324 40.0446 125.375 40.1361 125.467C40.2276 125.559 40.2789 125.683 40.2789 125.813C40.2789 125.942 40.2276 126.067 40.1361 126.158C40.0446 126.25 39.9206 126.302 39.7912 126.302H39.7522Z" fill="#D1D3D4"/>
<path d="M18.9275 212.059V231.973L34.9532 242.629V223.077L18.9275 212.059Z" fill="white"/>
<path d="M34.9533 243.128C34.8584 243.127 34.7663 243.097 34.69 243.04L18.6544 232.384C18.5876 232.339 18.533 232.277 18.4955 232.206C18.458 232.134 18.4389 232.054 18.4399 231.973V212.049C18.4406 211.961 18.4652 211.874 18.5112 211.799C18.5571 211.723 18.6226 211.662 18.7006 211.621C18.7787 211.58 18.8664 211.56 18.9545 211.565C19.0425 211.57 19.1276 211.599 19.2007 211.648L35.2362 222.696C35.2987 222.742 35.3498 222.803 35.3853 222.872C35.4208 222.942 35.4399 223.018 35.441 223.096V242.649C35.4402 242.737 35.4164 242.823 35.3718 242.898C35.3273 242.974 35.2637 243.036 35.1874 243.079C35.1146 243.115 35.0342 243.131 34.9533 243.128ZM19.4152 231.709L34.4656 241.72V223.341L19.4152 212.978V231.709Z" fill="#231F20"/>
<path d="M180.161 186.709C180.031 186.709 179.907 186.658 179.816 186.566C179.724 186.474 179.673 186.35 179.673 186.22V94.8904C179.673 94.7608 179.724 94.6365 179.816 94.5448C179.907 94.4531 180.031 94.4016 180.161 94.4016C180.29 94.4016 180.414 94.4531 180.505 94.5448C180.597 94.6365 180.648 94.7608 180.648 94.8904V186.22C180.648 186.35 180.597 186.474 180.505 186.566C180.414 186.658 180.29 186.709 180.161 186.709Z" fill="#D1D3D4"/>
<path d="M145.885 199.448C145.757 199.445 145.634 199.393 145.543 199.302C145.452 199.211 145.4 199.088 145.397 198.959V141.768C145.4 141.639 145.452 141.516 145.543 141.425C145.634 141.334 145.757 141.281 145.885 141.279C146.015 141.279 146.139 141.33 146.23 141.422C146.321 141.514 146.373 141.638 146.373 141.768V198.959C146.373 199.088 146.321 199.213 146.23 199.304C146.139 199.396 146.015 199.448 145.885 199.448Z" fill="#D1D3D4"/>
<path d="M111.61 212.127C111.48 212.127 111.356 212.076 111.265 211.984C111.173 211.893 111.122 211.768 111.122 211.639V175.711C111.124 175.582 111.177 175.459 111.268 175.368C111.358 175.277 111.481 175.224 111.61 175.222C111.739 175.222 111.863 175.273 111.954 175.365C112.046 175.457 112.097 175.581 112.097 175.711V211.639C112.097 211.768 112.046 211.893 111.954 211.984C111.863 212.076 111.739 212.127 111.61 212.127Z" fill="#D1D3D4"/>
<path d="M77.3343 224.817C77.2049 224.817 77.0809 224.766 76.9894 224.674C76.8979 224.582 76.8466 224.458 76.8466 224.328V202.107C76.8491 201.978 76.9012 201.855 76.9922 201.764C77.0831 201.673 77.2057 201.62 77.3343 201.618C77.4636 201.618 77.5876 201.669 77.6791 201.761C77.7706 201.853 77.8219 201.977 77.8219 202.107V224.328C77.8219 224.458 77.7706 224.582 77.6791 224.674C77.5876 224.766 77.4636 224.817 77.3343 224.817Z" fill="#D1D3D4"/>
</g>
<defs>
<clipPath id="clip0">
<rect width="197" height="244" fill="white"/>
</clipPath>
</defs>
</svg>
